<svg width="1129" height="696" viewBox="0 0 1129 696" fill="none" xmlns="http://www.w3.org/2000/svg">
<path d="M1129 0H0V696H1129V0Z" fill="white"/>
<path fill-rule="evenodd" clip-rule="evenodd" d="M818.705 234.613C818.282 234.309 817.294 234.202 816.831 234.11C814.911 233.732 812.935 233.568 810.975 233.568C804.946 233.577 798.815 234.169 792.887 235.193C789.116 235.843 784.569 238.032 780.82 236.843C774.294 234.772 767.698 234.874 761.506 237.831C755.844 240.534 751.547 245.668 749.039 251.216C748.66 252.054 747.125 255.136 746.691 257.214C746.505 257.639 746.326 258.066 746.165 258.5C745.709 259.733 745.299 260.987 744.919 262.245C744.756 262.781 744.347 263.964 744.833 264.193C744.057 265.625 743.369 267.1 742.797 268.623C741.13 273.053 739.308 277.912 738.723 282.607C738.506 284.346 738.498 286.094 738.699 287.836C738.799 288.697 738.758 290.428 739.341 291.083C740.581 292.472 741.217 290.527 741.077 289.601C740.011 282.542 742.071 275.913 744.511 269.277C746.09 264.987 748.684 261.061 751.589 257.507C753.941 254.629 756.463 252.363 759.686 250.455C763.628 248.122 767.842 246.236 772.017 244.344C774.764 243.099 777.513 241.887 780.336 240.815C780.964 240.576 781.951 239.964 782.647 239.962C784.122 239.957 786.207 241.042 787.626 241.446C792.299 242.775 797.035 244.477 801.872 245.156C804.969 245.592 807.878 245.101 810.771 244.069C811.069 243.964 811.563 243.692 812.174 243.305C814.33 242.478 816.361 241.436 818.133 239.933C819.16 239.067 820.085 237.948 820.932 236.924C821.183 236.618 821.293 236.267 821.3 235.933C821.489 235.833 821.614 235.716 821.645 235.579C821.857 234.572 819.936 234.554 818.705 234.613Z" fill="#89C5CC"/>
<path fill-rule="evenodd" clip-rule="evenodd" d="M328.722 318.64C327.539 319.598 326.378 320.577 325.246 321.594C324.383 322.371 322.856 323.3 322.546 324.475C322.224 325.697 323.241 326.84 324.043 327.579C328.291 331.485 333.073 334.126 338.958 334.565C348.02 335.242 355.906 332.928 363.769 328.376C369.291 325.179 372.95 320.449 373.748 314.063C380.326 316.795 386.686 320.562 392.092 325.185C394.76 327.466 397.057 329.993 399.182 332.794C400.543 334.589 401.859 336.412 403.08 338.305C403.611 339.128 404.151 340.587 405.028 341.06C406.057 341.618 407.302 340.744 407.251 339.601C407.208 338.649 406.18 337.544 405.698 336.766C404.9 335.474 404.09 334.19 403.236 332.933C401.854 330.898 400.427 328.891 398.869 326.987C395.37 322.708 390.917 319.173 386.301 316.159C377.447 310.376 367.729 306.733 356.955 306.424C350.33 306.234 344.757 308.497 339.091 311.876C335.564 313.981 331.923 316.049 328.722 318.64Z" fill="#DDE3E9"/>
<path fill-rule="evenodd" clip-rule="evenodd" d="M414.659 290.671C407.755 283.563 400.827 276.544 393.114 270.285C388.568 266.597 383.778 263.244 379.086 259.747C379.627 260.221 380.158 260.708 380.676 261.208C379.212 260.215 377.295 259.653 375.742 258.732C374.01 257.706 372.354 256.533 370.731 255.35C367.561 253.041 364.439 250.688 361.18 248.499C357.55 246.061 353.789 243.808 350.097 241.463C346.963 239.471 343.791 237.291 340.439 235.664C338.612 234.777 336.782 233.725 334.947 232.799C334.333 232.49 328.103 228.558 328.119 228.546C328.463 228.286 331.598 229.759 332.083 229.957C333.499 230.535 334.854 231.227 336.215 231.916C335.467 230.443 334.876 228.895 334.554 227.264C334.455 226.762 333.658 223.099 334.066 222.792C334.269 222.639 336.256 229.191 336.358 229.821C336.441 230.332 336.429 231.07 336.596 231.554C336.867 232.336 336.854 232.1 337.449 232.541C338.542 233.349 339.991 233.854 341.173 234.529C341.811 234.885 343.784 236.295 344.973 236.697C348.569 238.444 352.215 241.13 355.633 243.361C354.736 241.676 354.053 239.914 353.556 238.068C353.437 237.629 352.159 233.697 352.47 233.463C352.819 233.201 355.252 239.207 355.397 239.775C355.664 240.832 355.72 242.007 356.055 243.035C356.423 244.163 357.572 244.562 358.606 245.22C362.415 247.639 366.092 250.209 369.708 252.897C373.654 245.882 369.105 237.41 365.271 231.524C362.506 227.282 358.786 223.645 354.857 220.47C349.614 216.233 343.615 212.847 337.624 209.75C330.643 206.142 323.097 203.907 315.252 202.874C311.149 202.334 306.952 202.349 302.808 202.522C300.784 202.606 298.84 202.875 296.9 203.534C296.025 203.832 295.18 204.208 294.357 204.628C293.731 204.947 292.217 205.285 291.858 205.76C288.896 209.614 287.381 213.453 287.613 218.295C287.832 222.879 289.28 227.465 291.244 231.554C293.433 236.107 296.248 240.239 299.93 243.707C302.738 246.353 305.878 248.656 308.998 250.928C320.093 259.011 334.159 266.042 348.529 264.236C353.18 263.651 357.604 262.025 361.739 259.816C362.713 259.294 363.681 258.768 364.601 258.153C365.221 257.739 366.879 255.871 367.502 255.803C368.357 255.71 370.198 257.449 371 257.978C377.095 261.999 383.031 266.24 388.841 270.651C395.024 275.345 400.902 280.357 406.609 285.605C409.035 287.838 411.447 290.075 413.803 292.383C414.352 292.92 415.693 294.896 416.688 294.986C417.317 295.043 417.741 294.506 417.652 293.924C417.496 292.912 415.366 291.398 414.659 290.671Z" fill="#C1DEE2"/>
<path fill-rule="evenodd" clip-rule="evenodd" d="M811.453 263.085C808.78 262.501 805.824 262.546 803.103 262.593C788.497 262.792 774.147 269.707 764.81 280.755C756.862 290.161 754.676 301.855 753.106 313.676C752.95 314.849 752.884 316.015 752.796 317.192C752.777 317.444 752.749 317.669 752.718 317.881C752.101 318.433 751.777 319.077 752.143 319.784C750.783 322.76 749.632 325.811 748.644 328.959C745.737 338.223 742.782 347.664 744.602 357.405C745.028 352.044 745.923 346.562 746.993 341.289C747.055 340.987 747.121 340.686 747.19 340.387C747.198 340.356 747.204 340.324 747.211 340.292C747.59 338.678 748.082 337.112 748.681 335.57C748.688 335.553 748.694 335.536 748.7 335.52C748.779 335.317 748.863 335.115 748.946 334.913C749.118 334.495 749.295 334.078 749.481 333.664C749.545 333.522 749.605 333.379 749.664 333.236C750.536 331.099 750.903 328.691 751.685 326.481C751.872 325.979 752.067 325.478 752.271 324.979C752.284 324.95 752.296 324.921 752.308 324.892C752.862 323.551 753.473 322.228 754.119 320.917C754.471 320.653 754.658 319.998 754.962 319.404C755.023 319.286 755.513 318.505 755.659 318.054C756.04 317.318 756.419 316.582 756.802 315.847C756.791 315.851 756.78 315.855 756.768 315.86C757.151 315.154 757.536 314.452 757.918 313.752C758.002 313.598 758.087 313.444 758.171 313.29C758.309 313.045 758.446 312.799 758.582 312.555C759.862 310.265 761.219 308.022 762.628 305.806C763.131 305.016 764.332 303.882 764.563 302.994C764.571 302.961 764.573 302.93 764.578 302.899C767.636 298.605 771.156 294.645 775.378 291.508C774.867 292.06 773.782 293.931 773.496 294.301C772.618 295.435 771.665 296.491 770.71 297.56C768.996 299.475 767.325 301.45 765.839 303.539C763.122 307.359 760.778 311.379 758.562 315.481C758.541 315.504 758.518 315.527 758.498 315.552C757.384 316.924 756.683 318.998 755.882 320.568C759.054 319.099 762.563 318.142 765.818 316.838C769.065 315.538 772.223 314.09 775.273 312.39C779.326 310.129 783.531 307.578 787.36 304.69C791.75 301.969 795.435 298.223 798.689 294.293C802.547 289.642 806.075 284.951 808.254 279.304C809.328 276.529 810.167 273.635 810.669 270.708C810.693 270.581 810.724 270.442 810.747 270.299C811.265 269.288 811.72 268.254 812.104 267.197C812.715 265.519 814.15 263.674 811.453 263.085Z" fill="#69A1AC"/>
<path fill-rule="evenodd" clip-rule="evenodd" d="M302.864 271.983C301.804 270.927 300.614 269.974 299.216 269.295C298.863 269.123 296.232 267.972 296.06 268.225C295.661 268.813 302.545 271.646 302.864 271.983ZM315.34 264.928C315.331 264.973 316.244 266.398 316.492 266.836C317.021 267.768 317.509 268.718 317.969 269.669C317.289 267.988 316.59 266.429 315.34 264.928ZM251.53 276.53C250.651 276.79 249.595 275.763 250.734 275.51C251.657 275.307 251.612 275.259 252.026 274.576C252.362 274.02 252.57 273.343 252.865 272.761C253.49 271.524 254.201 270.345 255.072 269.241C256.94 266.873 259.216 264.832 261.769 263.113C266.224 260.112 271.218 257.37 276.516 255.992C284.941 253.802 294.529 253.666 302.967 255.185C308.193 256.126 312.969 257.761 316.438 261.634C318.173 263.569 319.534 265.838 320.13 268.335C320.285 268.987 320.256 269.713 320.45 270.352C320.749 271.334 320.617 271.072 321.865 271.264C323.229 271.472 324.591 271.685 325.952 271.902C329.517 272.47 333.103 273.073 336.576 273.994C337.72 274.297 338.838 274.667 339.93 275.098C340.756 275.422 344.046 276.444 344.445 277.432C345.111 279.076 342.881 278.33 342.189 277.973C341.582 277.659 340.959 277.366 340.327 277.097C338.735 276.419 337.077 275.895 335.381 275.477C333.549 275.026 331.679 274.69 329.816 274.352C328.08 274.037 326.336 273.751 324.59 273.479C323.62 273.327 322.649 273.179 321.679 273.031C321.347 272.981 320.763 272.717 320.807 273.113C318.766 272.751 316.559 272.804 314.481 272.703C311.935 272.582 309.379 272.482 306.825 272.555C304.982 272.608 303.138 272.719 301.305 272.946C300.234 273.08 299.18 273.275 298.129 273.522C297.552 273.657 295.276 273.944 294.961 274.407C295.096 274.208 297.608 274.402 297.928 274.39C299.207 274.346 300.476 274.229 301.75 274.099C304.115 273.856 306.481 273.729 308.853 273.747C308.844 274.13 307.224 274.813 306.828 275.067C305.941 275.636 305.092 276.258 304.299 276.94C302.904 278.141 301.232 279.627 300.266 281.05C300.551 280.631 301.955 280.085 302.453 279.765C303.251 279.252 304.033 278.704 304.773 278.119C305.456 277.579 306.093 276.995 306.72 276.398C307.346 275.802 308.197 274.562 309.02 274.164C309.07 274.14 309.429 274.401 309.633 274.313C309.838 274.223 310.094 273.776 310.147 273.758C310.913 273.486 312.368 273.824 313.174 273.859C315.265 273.947 317.353 274.063 319.44 274.169C320.087 274.201 320.638 274.066 320.881 274.505C321.142 274.974 320.665 276.205 320.529 276.716C320.025 278.611 319.131 280.311 317.723 281.779C315.087 284.529 311.836 286.362 308.164 287.589C294.097 292.287 279.132 294.168 265.07 289.281C259.248 287.258 250.48 283.643 251.53 276.53Z" fill="#89C5CC"/>
<mask id="mask0_28_431" style="mask-type:luminance" maskUnits="userSpaceOnUse" x="239" y="364" width="657" height="215">
<path d="M895.886 364.432H239.387V578.045H895.886V364.432Z" fill="white"/>
</mask>
<g mask="url(#mask0_28_431)">
<g opacity="0.6">
<path fill-rule="evenodd" clip-rule="evenodd" d="M895.328 497.851C904.901 557.483 672.913 596.38 473.239 569.235C273.564 542.091 181.963 436.087 277.245 379.604C372.526 323.121 885.763 438.218 895.328 497.851Z" fill="#DDE3E9"/>
</g>
</g>
<path d="M504.13 141.081H392.014C388.55 141.081 385.742 143.888 385.742 147.351V371.513C385.742 374.976 388.55 377.784 392.014 377.784H504.13C507.594 377.784 510.402 374.976 510.402 371.513V147.351C510.402 143.888 507.594 141.081 504.13 141.081Z" fill="#F2F2F2"/>
<path fill-rule="evenodd" clip-rule="evenodd" d="M447.68 362.892C454.175 362.892 459.44 357.628 459.44 351.135C459.44 344.642 454.175 339.378 447.68 339.378C441.185 339.378 435.919 344.642 435.919 351.135C435.919 357.628 441.185 362.892 447.68 362.892Z" fill="white"/>
<path fill-rule="evenodd" clip-rule="evenodd" d="M437.488 156.757C438.354 156.757 439.056 156.055 439.056 155.189C439.056 154.323 438.354 153.622 437.488 153.622C436.621 153.622 435.919 154.323 435.919 155.189C435.919 156.055 436.621 156.757 437.488 156.757Z" fill="white"/>
<path d="M457.872 153.622H444.544C443.678 153.622 442.976 154.323 442.976 155.189C442.976 156.055 443.678 156.757 444.544 156.757H457.872C458.738 156.757 459.44 156.055 459.44 155.189C459.44 154.323 458.738 153.622 457.872 153.622Z" fill="white"/>
<path d="M496.29 163.027H399.854C398.122 163.027 396.718 164.431 396.718 166.162V202.216C396.718 203.948 398.122 205.351 399.854 205.351H496.29C498.022 205.351 499.426 203.948 499.426 202.216V166.162C499.426 164.431 498.022 163.027 496.29 163.027Z" fill="white"/>
<mask id="mask1_28_431" style="mask-type:luminance" maskUnits="userSpaceOnUse" x="427" y="175" width="58" height="18">
<path d="M484.529 175.724H427.295V192.654H484.529V175.724Z" fill="white"/>
</mask>
<g mask="url(#mask1_28_431)">
<path d="M482.177 175.724H429.647C428.348 175.724 427.295 176.777 427.295 178.076V179.722C427.295 181.02 428.348 182.073 429.647 182.073H482.177C483.476 182.073 484.529 181.02 484.529 179.722V178.076C484.529 176.777 483.476 175.724 482.177 175.724Z" fill="#DDE3E9"/>
<path d="M463.36 186.305H429.647C428.348 186.305 427.295 187.358 427.295 188.657V190.303C427.295 191.601 428.348 192.654 429.647 192.654H463.36C464.659 192.654 465.713 191.601 465.713 190.303V188.657C465.713 187.358 464.659 186.305 463.36 186.305Z" fill="#DDE3E9"/>
</g>
<path fill-rule="evenodd" clip-rule="evenodd" d="M413.183 193.595C418.378 193.595 422.591 189.383 422.591 184.189C422.591 178.995 418.378 174.784 413.183 174.784C407.987 174.784 403.774 178.995 403.774 184.189C403.774 189.383 407.987 193.595 413.183 193.595Z" fill="#C5CFD6"/>
<path d="M496.29 211.622H399.854C398.122 211.622 396.718 213.025 396.718 214.757V241.405C396.718 243.137 398.122 244.541 399.854 244.541H496.29C498.022 244.541 499.426 243.137 499.426 241.405V214.757C499.426 213.025 498.022 211.622 496.29 211.622Z" fill="white"/>
<mask id="mask2_28_431" style="mask-type:luminance" maskUnits="userSpaceOnUse" x="427" y="221" width="58" height="14">
<path d="M484.529 221.497H427.295V234.665H484.529V221.497Z" fill="white"/>
</mask>
<g mask="url(#mask2_28_431)">
<path d="M482.177 221.497H429.647C428.348 221.497 427.295 222.55 427.295 223.849V224.084C427.295 225.382 428.348 226.435 429.647 226.435H482.177C483.476 226.435 484.529 225.382 484.529 224.084V223.849C484.529 222.55 483.476 221.497 482.177 221.497Z" fill="#DDE3E9"/>
<path d="M463.36 229.727H429.647C428.348 229.727 427.295 230.78 427.295 232.078V232.314C427.295 233.612 428.348 234.665 429.647 234.665H463.36C464.659 234.665 465.713 233.612 465.713 232.314V232.078C465.713 230.78 464.659 229.727 463.36 229.727Z" fill="#DDE3E9"/>
</g>
<path fill-rule="evenodd" clip-rule="evenodd" d="M413.183 237.486C418.378 237.486 422.591 233.275 422.591 228.081C422.591 222.887 418.378 218.676 413.183 218.676C407.987 218.676 403.774 222.887 403.774 228.081C403.774 233.275 407.987 237.486 413.183 237.486Z" fill="#C5CFD6"/>
<path d="M496.29 250.811H399.854C398.122 250.811 396.718 252.214 396.718 253.946V280.595C396.718 282.326 398.122 283.73 399.854 283.73H496.29C498.022 283.73 499.426 282.326 499.426 280.595V253.946C499.426 252.214 498.022 250.811 496.29 250.811Z" fill="white"/>
<mask id="mask3_28_431" style="mask-type:luminance" maskUnits="userSpaceOnUse" x="427" y="260" width="58" height="14">
<path d="M484.529 260.687H427.295V273.854H484.529V260.687Z" fill="white"/>
</mask>
<g mask="url(#mask3_28_431)">
<path d="M482.177 260.687H429.647C428.348 260.687 427.295 261.739 427.295 263.038V263.273C427.295 264.572 428.348 265.624 429.647 265.624H482.177C483.476 265.624 484.529 264.572 484.529 263.273V263.038C484.529 261.739 483.476 260.687 482.177 260.687Z" fill="#DDE3E9"/>
<path d="M463.36 268.916H429.647C428.348 268.916 427.295 269.969 427.295 271.268V271.503C427.295 272.801 428.348 273.854 429.647 273.854H463.36C464.659 273.854 465.713 272.801 465.713 271.503V271.268C465.713 269.969 464.659 268.916 463.36 268.916Z" fill="#DDE3E9"/>
</g>
<path fill-rule="evenodd" clip-rule="evenodd" d="M413.183 276.676C418.378 276.676 422.591 272.464 422.591 267.27C422.591 262.076 418.378 257.865 413.183 257.865C407.987 257.865 403.774 262.076 403.774 267.27C403.774 272.464 407.987 276.676 413.183 276.676Z" fill="#AFB9C5"/>
<path d="M496.29 290H399.854C398.122 290 396.718 291.404 396.718 293.135V319.784C396.718 321.515 398.122 322.919 399.854 322.919H496.29C498.022 322.919 499.426 321.515 499.426 319.784V293.135C499.426 291.404 498.022 290 496.29 290Z" fill="white"/>
<mask id="mask4_28_431" style="mask-type:luminance" maskUnits="userSpaceOnUse" x="427" y="299" width="58" height="15">
<path d="M484.529 299.876H427.295V313.043H484.529V299.876Z" fill="white"/>
</mask>
<g mask="url(#mask4_28_431)">
<path d="M482.177 299.876H429.647C428.348 299.876 427.295 300.928 427.295 302.227V302.462C427.295 303.761 428.348 304.814 429.647 304.814H482.177C483.476 304.814 484.529 303.761 484.529 302.462V302.227C484.529 300.928 483.476 299.876 482.177 299.876Z" fill="#DDE3E9"/>
<path d="M463.36 308.105H429.647C428.348 308.105 427.295 309.158 427.295 310.457V310.692C427.295 311.991 428.348 313.043 429.647 313.043H463.36C464.659 313.043 465.713 311.991 465.713 310.692V310.457C465.713 309.158 464.659 308.105 463.36 308.105Z" fill="#DDE3E9"/>
</g>
<path fill-rule="evenodd" clip-rule="evenodd" d="M413.183 315.865C418.378 315.865 422.591 311.654 422.591 306.459C422.591 301.265 418.378 297.054 413.183 297.054C407.987 297.054 403.774 301.265 403.774 306.459C403.774 311.654 407.987 315.865 413.183 315.865Z" fill="#C5CFD6"/>
<path fill-rule="evenodd" clip-rule="evenodd" d="M409.372 332.324C408.333 332.324 407.298 332.346 406.26 332.399C405.469 332.44 404.261 332.277 403.592 332.77C402.897 333.281 402.945 334.328 403.054 335.068C403.628 338.981 405.029 342.45 407.96 345.222C412.474 349.49 417.648 351.659 423.77 352.624C428.071 353.303 432.042 352.361 435.208 349.303C437.521 353.595 439.276 358.345 440.156 363.139C440.591 365.504 440.723 367.842 440.647 370.25C440.598 371.793 440.513 373.332 440.348 374.867C440.276 375.534 439.935 376.544 440.196 377.175C440.503 377.915 441.537 377.987 442.001 377.355C442.388 376.83 442.317 375.798 442.396 375.176C442.528 374.143 442.65 373.109 442.737 372.072C442.878 370.392 442.983 368.708 442.976 367.021C442.958 363.233 442.115 359.43 440.962 355.834C438.751 348.934 435.164 342.803 429.585 337.992C426.154 335.034 422.228 333.836 417.774 333.193C415 332.792 412.181 332.324 409.372 332.324Z" fill="#89C5CC"/>
<path fill-rule="evenodd" clip-rule="evenodd" d="M425.391 359.757C414.18 359.757 406.63 368.789 403.06 378.177C401.714 381.715 401.399 385.601 400.88 389.316C400.713 390.509 400.775 392.326 400.291 393.388C400.115 393.774 399.712 393.912 399.905 394.437C400.022 394.754 400.25 394.949 400.594 395.012C401.299 395.142 402.296 394.374 402.901 394.072C407.916 391.557 411.21 387.67 413.898 382.914C415.565 379.966 417.255 376.905 418.244 373.669C418.849 371.691 419.201 369.61 419.408 367.559C419.489 366.75 419.568 365.924 419.563 365.112C419.558 364.305 419.183 363.879 418.913 363.177C422.654 361.762 426.876 361.376 430.666 362.842C434.17 364.199 437.081 366.821 438.711 370.115C439.135 370.971 439.462 371.874 439.699 372.796C439.855 373.399 439.862 374.181 440.152 374.727C440.851 376.05 442.323 375.166 442.182 373.935C441.788 370.501 439.823 367.053 437.311 364.666C434.143 361.654 429.85 359.757 425.391 359.757Z" fill="#89C5CC"/>
<path d="M555.876 161.459H443.76C440.296 161.459 437.487 164.267 437.487 167.73V391.892C437.487 395.355 440.296 398.162 443.76 398.162H555.876C559.34 398.162 562.148 395.355 562.148 391.892V167.73C562.148 164.267 559.34 161.459 555.876 161.459Z" fill="#DDE3E9"/>
<path fill-rule="evenodd" clip-rule="evenodd" d="M499.426 383.27C505.921 383.27 511.186 378.006 511.186 371.514C511.186 365.021 505.921 359.757 499.426 359.757C492.931 359.757 487.665 365.021 487.665 371.514C487.665 378.006 492.931 383.27 499.426 383.27Z" fill="white"/>
<path fill-rule="evenodd" clip-rule="evenodd" d="M489.233 177.135C490.1 177.135 490.801 176.434 490.801 175.568C490.801 174.701 490.1 174 489.233 174C488.367 174 487.665 174.701 487.665 175.568C487.665 176.434 488.367 177.135 489.233 177.135Z" fill="white"/>
<path d="M509.618 174H496.29C495.424 174 494.722 174.702 494.722 175.568C494.722 176.433 495.424 177.135 496.29 177.135H509.618C510.484 177.135 511.186 176.433 511.186 175.568C511.186 174.702 510.484 174 509.618 174Z" fill="white"/>
<path d="M548.035 183.405H451.6C449.868 183.405 448.464 184.809 448.464 186.541V222.595C448.464 224.326 449.868 225.73 451.6 225.73H548.035C549.767 225.73 551.172 224.326 551.172 222.595V186.541C551.172 184.809 549.767 183.405 548.035 183.405Z" fill="white"/>
<mask id="mask5_28_431" style="mask-type:luminance" maskUnits="userSpaceOnUse" x="455" y="196" width="58" height="18">
<path d="M512.754 196.103H455.52V213.032H512.754V196.103Z" fill="white"/>
</mask>
<g mask="url(#mask5_28_431)">
<path d="M510.402 196.103H457.872C456.573 196.103 455.52 197.155 455.52 198.454V200.1C455.52 201.399 456.573 202.451 457.872 202.451H510.402C511.701 202.451 512.754 201.399 512.754 200.1V198.454C512.754 197.155 511.701 196.103 510.402 196.103Z" fill="#DDE3E9"/>
<path d="M491.585 206.684H457.872C456.573 206.684 455.52 207.736 455.52 209.035V210.681C455.52 211.98 456.573 213.032 457.872 213.032H491.585C492.885 213.032 493.938 211.98 493.938 210.681V209.035C493.938 207.736 492.885 206.684 491.585 206.684Z" fill="#DDE3E9"/>
</g>
<path fill-rule="evenodd" clip-rule="evenodd" d="M540.195 210.054C543.226 210.054 545.683 207.598 545.683 204.568C545.683 201.537 543.226 199.081 540.195 199.081C537.164 199.081 534.707 201.537 534.707 204.568C534.707 207.598 537.164 210.054 540.195 210.054Z" fill="#DDE3E9"/>
<path fill-rule="evenodd" clip-rule="evenodd" d="M540.195 206.919C541.494 206.919 542.547 205.866 542.547 204.568C542.547 203.269 541.494 202.216 540.195 202.216C538.896 202.216 537.843 203.269 537.843 204.568C537.843 205.866 538.896 206.919 540.195 206.919Z" fill="#F2F2F2"/>
<path d="M548.035 232H451.6C449.868 232 448.464 233.404 448.464 235.135V261.784C448.464 263.515 449.868 264.919 451.6 264.919H548.035C549.767 264.919 551.172 263.515 551.172 261.784V235.135C551.172 233.404 549.767 232 548.035 232Z" fill="white"/>
<mask id="mask6_28_431" style="mask-type:luminance" maskUnits="userSpaceOnUse" x="479" y="241" width="58" height="15">
<path d="M536.275 241.876H479.041V255.043H536.275V241.876Z" fill="white"/>
</mask>
<g mask="url(#mask6_28_431)">
<path d="M533.923 241.876H481.393C480.094 241.876 479.041 242.928 479.041 244.227V244.462C479.041 245.761 480.094 246.814 481.393 246.814H533.923C535.222 246.814 536.275 245.761 536.275 244.462V244.227C536.275 242.928 535.222 241.876 533.923 241.876Z" fill="#DDE3E9"/>
<path d="M515.106 250.105H481.393C480.094 250.105 479.041 251.158 479.041 252.457V252.692C479.041 253.991 480.094 255.043 481.393 255.043H515.106C516.405 255.043 517.458 253.991 517.458 252.692V252.457C517.458 251.158 516.405 250.105 515.106 250.105Z" fill="#DDE3E9"/>
</g>
<path fill-rule="evenodd" clip-rule="evenodd" d="M464.929 257.865C470.124 257.865 474.337 253.654 474.337 248.459C474.337 243.265 470.124 239.054 464.929 239.054C459.733 239.054 455.52 243.265 455.52 248.459C455.52 253.654 459.733 257.865 464.929 257.865Z" fill="#C5CFD6"/>
<path d="M548.035 271.189H451.6C449.868 271.189 448.464 272.593 448.464 274.324V300.973C448.464 302.704 449.868 304.108 451.6 304.108H548.035C549.767 304.108 551.172 302.704 551.172 300.973V274.324C551.172 272.593 549.767 271.189 548.035 271.189Z" fill="white"/>
<mask id="mask7_28_431" style="mask-type:luminance" maskUnits="userSpaceOnUse" x="455" y="281" width="58" height="14">
<path d="M512.754 281.065H455.52V294.233H512.754V281.065Z" fill="white"/>
</mask>
<g mask="url(#mask7_28_431)">
<path d="M510.402 281.065H457.872C456.573 281.065 455.52 282.118 455.52 283.416V283.651C455.52 284.95 456.573 286.003 457.872 286.003H510.402C511.701 286.003 512.754 284.95 512.754 283.651V283.416C512.754 282.118 511.701 281.065 510.402 281.065Z" fill="#DDE3E9"/>
<path d="M491.585 289.295H457.872C456.573 289.295 455.52 290.347 455.52 291.646V291.881C455.52 293.18 456.573 294.233 457.872 294.233H491.585C492.885 294.233 493.938 293.18 493.938 291.881V291.646C493.938 290.347 492.885 289.295 491.585 289.295Z" fill="#AFB9C5"/>
</g>
<path fill-rule="evenodd" clip-rule="evenodd" d="M540.195 293.135C543.226 293.135 545.683 290.679 545.683 287.649C545.683 284.619 543.226 282.162 540.195 282.162C537.164 282.162 534.707 284.619 534.707 287.649C534.707 290.679 537.164 293.135 540.195 293.135Z" fill="#DDE3E9"/>
<path fill-rule="evenodd" clip-rule="evenodd" d="M540.195 290C541.494 290 542.547 288.947 542.547 287.649C542.547 286.35 541.494 285.297 540.195 285.297C538.896 285.297 537.843 286.35 537.843 287.649C537.843 288.947 538.896 290 540.195 290Z" fill="#F2F2F2"/>
<path d="M548.035 310.378H451.6C449.868 310.378 448.464 311.782 448.464 313.514V340.162C448.464 341.894 449.868 343.297 451.6 343.297H548.035C549.767 343.297 551.172 341.894 551.172 340.162V313.514C551.172 311.782 549.767 310.378 548.035 310.378Z" fill="white"/>
<mask id="mask8_28_431" style="mask-type:luminance" maskUnits="userSpaceOnUse" x="479" y="320" width="58" height="14">
<path d="M536.275 320.254H479.041V333.422H536.275V320.254Z" fill="white"/>
</mask>
<g mask="url(#mask8_28_431)">
<path d="M533.923 320.254H481.393C480.094 320.254 479.041 321.307 479.041 322.606V322.841C479.041 324.139 480.094 325.192 481.393 325.192H533.923C535.222 325.192 536.275 324.139 536.275 322.841V322.606C536.275 321.307 535.222 320.254 533.923 320.254Z" fill="#DDE3E9"/>
<path d="M515.106 328.484H481.393C480.094 328.484 479.041 329.537 479.041 330.835V331.07C479.041 332.369 480.094 333.422 481.393 333.422H515.106C516.405 333.422 517.458 332.369 517.458 331.07V330.835C517.458 329.537 516.405 328.484 515.106 328.484Z" fill="#DDE3E9"/>
</g>
<path fill-rule="evenodd" clip-rule="evenodd" d="M464.929 336.243C470.124 336.243 474.337 332.032 474.337 326.838C474.337 321.644 470.124 317.432 464.929 317.432C459.733 317.432 455.52 321.644 455.52 326.838C455.52 332.032 459.733 336.243 464.929 336.243Z" fill="#C5CFD6"/>
<path d="M745.61 181.054H495.506C492.042 181.054 489.233 183.861 489.233 187.324V445.973C489.233 449.436 492.042 452.243 495.506 452.243H745.61C749.074 452.243 751.883 449.436 751.883 445.973V187.324C751.883 183.861 749.074 181.054 745.61 181.054Z" fill="#F2F2F2"/>
<path d="M733.066 214.757H690.728C687.264 214.757 684.456 217.564 684.456 221.027V271.973C684.456 275.436 687.264 278.243 690.728 278.243H733.066C736.53 278.243 739.338 275.436 739.338 271.973V221.027C739.338 217.564 736.53 214.757 733.066 214.757Z" fill="white"/>
<path fill-rule="evenodd" clip-rule="evenodd" d="M711.897 251.595C718.826 251.595 724.442 245.98 724.442 239.054C724.442 232.128 718.826 226.514 711.897 226.514C704.969 226.514 699.353 232.128 699.353 239.054C699.353 245.98 704.969 251.595 711.897 251.595Z" fill="#DDE3E9"/>
<path d="M729.146 254.73H694.649C693.35 254.73 692.297 255.782 692.297 257.081C692.297 258.38 693.35 259.432 694.649 259.432H729.146C730.445 259.432 731.498 258.38 731.498 257.081C731.498 255.782 730.445 254.73 729.146 254.73Z" fill="#DDE3E9"/>
<path d="M722.874 262.568H700.921C699.622 262.568 698.569 263.62 698.569 264.919C698.569 266.218 699.622 267.27 700.921 267.27H722.874C724.173 267.27 725.226 266.218 725.226 264.919C725.226 263.62 724.173 262.568 722.874 262.568Z" fill="#DDE3E9"/>
<path d="M489.233 187.324C489.233 183.862 492.042 181.054 495.506 181.054H745.61C749.074 181.054 751.883 183.862 751.883 187.324V202.216H489.233V187.324Z" fill="#C5CFD6"/>
<path fill-rule="evenodd" clip-rule="evenodd" d="M499.426 195.162C501.158 195.162 502.562 193.758 502.562 192.027C502.562 190.296 501.158 188.892 499.426 188.892C497.694 188.892 496.29 190.296 496.29 192.027C496.29 193.758 497.694 195.162 499.426 195.162Z" fill="#F2F2F2"/>
<path fill-rule="evenodd" clip-rule="evenodd" d="M508.834 195.162C510.566 195.162 511.97 193.758 511.97 192.027C511.97 190.296 510.566 188.892 508.834 188.892C507.102 188.892 505.698 190.296 505.698 192.027C505.698 193.758 507.102 195.162 508.834 195.162Z" fill="#F2F2F2"/>
<path fill-rule="evenodd" clip-rule="evenodd" d="M518.242 195.162C519.974 195.162 521.378 193.758 521.378 192.027C521.378 190.296 519.974 188.892 518.242 188.892C516.51 188.892 515.106 190.296 515.106 192.027C515.106 193.758 516.51 195.162 518.242 195.162Z" fill="#F2F2F2"/>
<path d="M733.066 284.514H690.728C687.264 284.514 684.456 287.321 684.456 290.784V430.297C684.456 433.76 687.264 436.568 690.728 436.568H733.066C736.53 436.568 739.338 433.76 739.338 430.297V290.784C739.338 287.321 736.53 284.514 733.066 284.514Z" fill="white"/>
<path d="M722.09 298.622H701.705C699.973 298.622 698.569 300.025 698.569 301.757V315.865C698.569 317.596 699.973 319 701.705 319H722.09C723.822 319 725.226 317.596 725.226 315.865V301.757C725.226 300.025 723.822 298.622 722.09 298.622Z" fill="#DDE3E9"/>
<path d="M722.09 325.27H701.705C699.973 325.27 698.569 326.674 698.569 328.406V341.73C698.569 343.461 699.973 344.865 701.705 344.865H722.09C723.822 344.865 725.226 343.461 725.226 341.73V328.406C725.226 326.674 723.822 325.27 722.09 325.27Z" fill="#AFB9C5"/>
<path d="M722.09 351.135H701.705C699.973 351.135 698.569 352.539 698.569 354.27V367.595C698.569 369.326 699.973 370.73 701.705 370.73H722.09C723.822 370.73 725.226 369.326 725.226 367.595V354.27C725.226 352.539 723.822 351.135 722.09 351.135Z" fill="#DDE3E9"/>
<path d="M722.09 402.865H701.705C699.973 402.865 698.569 404.269 698.569 406V419.324C698.569 421.056 699.973 422.46 701.705 422.46H722.09C723.822 422.46 725.226 421.056 725.226 419.324V406C725.226 404.269 723.822 402.865 722.09 402.865Z" fill="#DDE3E9"/>
<path d="M722.09 377H701.705C699.973 377 698.569 378.404 698.569 380.135V393.46C698.569 395.191 699.973 396.595 701.705 396.595H722.09C723.822 396.595 725.226 395.191 725.226 393.46V380.135C725.226 378.404 723.822 377 722.09 377Z" fill="#C5CFD6"/>
<path d="M675.048 215.541H504.914C503.182 215.541 501.778 216.944 501.778 218.676V249.243C501.778 250.975 503.182 252.378 504.914 252.378H675.048C676.78 252.378 678.184 250.975 678.184 249.243V218.676C678.184 216.944 676.78 215.541 675.048 215.541Z" fill="white"/>
<mask id="mask9_28_431" style="mask-type:luminance" maskUnits="userSpaceOnUse" x="508" y="226" width="132" height="16">
<path d="M639.767 226.592H508.834V241.327H639.767V226.592Z" fill="white"/>
</mask>
<g mask="url(#mask9_28_431)">
<path d="M637.415 226.592H511.186C509.887 226.592 508.834 227.645 508.834 228.943V229.766C508.834 231.065 509.887 232.118 511.186 232.118H637.415C638.714 232.118 639.767 231.065 639.767 229.766V228.943C639.767 227.645 638.714 226.592 637.415 226.592Z" fill="#DDE3E9"/>
<path d="M594.368 235.801H511.186C509.887 235.801 508.834 236.854 508.834 238.153V238.976C508.834 240.274 509.887 241.327 511.186 241.327H594.368C595.667 241.327 596.72 240.274 596.72 238.976V238.153C596.72 236.854 595.667 235.801 594.368 235.801Z" fill="#DDE3E9"/>
</g>
<path fill-rule="evenodd" clip-rule="evenodd" d="M659.331 239.446C662.362 239.446 664.819 236.989 664.819 233.959C664.819 230.929 662.362 228.473 659.331 228.473C656.3 228.473 653.843 230.929 653.843 233.959C653.843 236.989 656.3 239.446 659.331 239.446Z" fill="#DDE3E9"/>
<path fill-rule="evenodd" clip-rule="evenodd" d="M659.331 236.311C660.63 236.311 661.683 235.258 661.683 233.959C661.683 232.661 660.63 231.608 659.331 231.608C658.032 231.608 656.979 232.661 656.979 233.959C656.979 235.258 658.032 236.311 659.331 236.311Z" fill="#F2F2F2"/>
<path d="M675.048 258.649H504.914C503.182 258.649 501.778 260.052 501.778 261.784V286.081C501.778 287.813 503.182 289.216 504.914 289.216H675.048C676.78 289.216 678.184 287.813 678.184 286.081V261.784C678.184 260.052 676.78 258.649 675.048 258.649Z" fill="white"/>
<mask id="mask10_28_431" style="mask-type:luminance" maskUnits="userSpaceOnUse" x="508" y="267" width="132" height="14">
<path d="M639.767 267.819H508.834V280.046H639.767V267.819Z" fill="white"/>
</mask>
<g mask="url(#mask10_28_431)">
<path d="M637.473 267.819H511.127C509.861 267.819 508.834 268.845 508.834 270.112C508.834 271.378 509.861 272.404 511.127 272.404H637.473C638.74 272.404 639.767 271.378 639.767 270.112C639.767 268.845 638.74 267.819 637.473 267.819Z" fill="#DDE3E9"/>
<path d="M594.427 275.461H511.127C509.861 275.461 508.834 276.487 508.834 277.753C508.834 279.02 509.861 280.046 511.127 280.046H594.427C595.694 280.046 596.72 279.02 596.72 277.753C596.72 276.487 595.694 275.461 594.427 275.461Z" fill="#DDE3E9"/>
</g>
<path fill-rule="evenodd" clip-rule="evenodd" d="M659.331 279.419C662.362 279.419 664.819 276.963 664.819 273.932C664.819 270.902 662.362 268.446 659.331 268.446C656.3 268.446 653.843 270.902 653.843 273.932C653.843 276.963 656.3 279.419 659.331 279.419Z" fill="#DDE3E9"/>
<path fill-rule="evenodd" clip-rule="evenodd" d="M659.331 276.284C660.63 276.284 661.683 275.231 661.683 273.932C661.683 272.634 660.63 271.581 659.331 271.581C658.032 271.581 656.979 272.634 656.979 273.932C656.979 275.231 658.032 276.284 659.331 276.284Z" fill="#F2F2F2"/>
<path d="M675.048 295.486H504.914C503.182 295.486 501.778 296.89 501.778 298.622V322.919C501.778 324.65 503.182 326.054 504.914 326.054H675.048C676.78 326.054 678.184 324.65 678.184 322.919V298.622C678.184 296.89 676.78 295.486 675.048 295.486Z" fill="white"/>
<mask id="mask11_28_431" style="mask-type:luminance" maskUnits="userSpaceOnUse" x="508" y="304" width="132" height="13">
<path d="M639.767 304.657H508.834V316.884H639.767V304.657Z" fill="white"/>
</mask>
<g mask="url(#mask11_28_431)">
<path d="M637.473 304.657H511.127C509.861 304.657 508.834 305.683 508.834 306.949C508.834 308.215 509.861 309.242 511.127 309.242H637.473C638.74 309.242 639.767 308.215 639.767 306.949C639.767 305.683 638.74 304.657 637.473 304.657Z" fill="#DDE3E9"/>
<path d="M594.427 312.299H511.127C509.861 312.299 508.834 313.325 508.834 314.591C508.834 315.857 509.861 316.884 511.127 316.884H594.427C595.694 316.884 596.72 315.857 596.72 314.591C596.72 313.325 595.694 312.299 594.427 312.299Z" fill="#DDE3E9"/>
</g>
<path fill-rule="evenodd" clip-rule="evenodd" d="M659.331 316.257C662.362 316.257 664.819 313.8 664.819 310.77C664.819 307.74 662.362 305.284 659.331 305.284C656.3 305.284 653.843 307.74 653.843 310.77C653.843 313.8 656.3 316.257 659.331 316.257Z" fill="#DDE3E9"/>
<path fill-rule="evenodd" clip-rule="evenodd" d="M659.331 313.122C660.63 313.122 661.683 312.069 661.683 310.77C661.683 309.471 660.63 308.419 659.331 308.419C658.032 308.419 656.979 309.471 656.979 310.77C656.979 312.069 658.032 313.122 659.331 313.122Z" fill="#AFB9C5"/>
<path d="M675.048 406H504.914C503.182 406 501.778 407.404 501.778 409.135V433.432C501.778 435.164 503.182 436.568 504.914 436.568H675.048C676.78 436.568 678.184 435.164 678.184 433.432V409.135C678.184 407.404 676.78 406 675.048 406Z" fill="white"/>
<mask id="mask12_28_431" style="mask-type:luminance" maskUnits="userSpaceOnUse" x="508" y="415" width="132" height="13">
<path d="M639.767 415.17H508.834V427.397H639.767V415.17Z" fill="white"/>
</mask>
<g mask="url(#mask12_28_431)">
<path d="M637.473 415.17H511.127C509.861 415.17 508.834 416.197 508.834 417.463C508.834 418.729 509.861 419.755 511.127 419.755H637.473C638.74 419.755 639.767 418.729 639.767 417.463C639.767 416.197 638.74 415.17 637.473 415.17Z" fill="#DDE3E9"/>
<path d="M594.427 422.812H511.127C509.861 422.812 508.834 423.839 508.834 425.105C508.834 426.371 509.861 427.397 511.127 427.397H594.427C595.694 427.397 596.72 426.371 596.72 425.105C596.72 423.839 595.694 422.812 594.427 422.812Z" fill="#DDE3E9"/>
</g>
<path fill-rule="evenodd" clip-rule="evenodd" d="M659.331 426.77C662.362 426.77 664.819 424.314 664.819 421.284C664.819 418.254 662.362 415.797 659.331 415.797C656.3 415.797 653.843 418.254 653.843 421.284C653.843 424.314 656.3 426.77 659.331 426.77Z" fill="#DDE3E9"/>
<path fill-rule="evenodd" clip-rule="evenodd" d="M659.331 423.635C660.63 423.635 661.683 422.582 661.683 421.284C661.683 419.985 660.63 418.932 659.331 418.932C658.032 418.932 656.979 419.985 656.979 421.284C656.979 422.582 658.032 423.635 659.331 423.635Z" fill="#F2F2F2"/>
<path d="M675.048 369.162H504.914C503.182 369.162 501.778 370.566 501.778 372.297V396.595C501.778 398.326 503.182 399.73 504.914 399.73H675.048C676.78 399.73 678.184 398.326 678.184 396.595V372.297C678.184 370.566 676.78 369.162 675.048 369.162Z" fill="white"/>
<mask id="mask13_28_431" style="mask-type:luminance" maskUnits="userSpaceOnUse" x="508" y="378" width="132" height="13">
<path d="M639.767 378.332H508.834V390.559H639.767V378.332Z" fill="white"/>
</mask>
<g mask="url(#mask13_28_431)">
<path d="M637.473 378.332H511.127C509.861 378.332 508.834 379.359 508.834 380.625C508.834 381.891 509.861 382.918 511.127 382.918H637.473C638.74 382.918 639.767 381.891 639.767 380.625C639.767 379.359 638.74 378.332 637.473 378.332Z" fill="#DDE3E9"/>
<path d="M594.427 385.974H511.127C509.861 385.974 508.834 387.001 508.834 388.267C508.834 389.533 509.861 390.559 511.127 390.559H594.427C595.694 390.559 596.72 389.533 596.72 388.267C596.72 387.001 595.694 385.974 594.427 385.974Z" fill="#DDE3E9"/>
</g>
<path fill-rule="evenodd" clip-rule="evenodd" d="M659.331 389.932C662.362 389.932 664.819 387.476 664.819 384.446C664.819 381.416 662.362 378.959 659.331 378.959C656.3 378.959 653.843 381.416 653.843 384.446C653.843 387.476 656.3 389.932 659.331 389.932Z" fill="#DDE3E9"/>
<path fill-rule="evenodd" clip-rule="evenodd" d="M659.331 386.797C660.63 386.797 661.683 385.745 661.683 384.446C661.683 383.147 660.63 382.094 659.331 382.094C658.032 382.094 656.979 383.147 656.979 384.446C656.979 385.745 658.032 386.797 659.331 386.797Z" fill="#F2F2F2"/>
<path d="M675.048 332.324H504.914C503.182 332.324 501.778 333.728 501.778 335.459V359.757C501.778 361.488 503.182 362.892 504.914 362.892H675.048C676.78 362.892 678.184 361.488 678.184 359.757V335.459C678.184 333.728 676.78 332.324 675.048 332.324Z" fill="white"/>
<mask id="mask14_28_431" style="mask-type:luminance" maskUnits="userSpaceOnUse" x="508" y="341" width="132" height="13">
<path d="M639.767 341.495H508.834V353.722H639.767V341.495Z" fill="white"/>
</mask>
<g mask="url(#mask14_28_431)">
<path d="M637.473 341.495H511.127C509.861 341.495 508.834 342.521 508.834 343.787C508.834 345.053 509.861 346.08 511.127 346.08H637.473C638.74 346.08 639.767 345.053 639.767 343.787C639.767 342.521 638.74 341.495 637.473 341.495Z" fill="#DDE3E9"/>
<path d="M594.427 349.136H511.127C509.861 349.136 508.834 350.163 508.834 351.429C508.834 352.695 509.861 353.722 511.127 353.722H594.427C595.694 353.722 596.72 352.695 596.72 351.429C596.72 350.163 595.694 349.136 594.427 349.136Z" fill="#DDE3E9"/>
</g>
<path fill-rule="evenodd" clip-rule="evenodd" d="M659.331 353.095C662.362 353.095 664.819 350.638 664.819 347.608C664.819 344.578 662.362 342.122 659.331 342.122C656.3 342.122 653.843 344.578 653.843 347.608C653.843 350.638 656.3 353.095 659.331 353.095Z" fill="#DDE3E9"/>
<path fill-rule="evenodd" clip-rule="evenodd" d="M659.331 349.959C660.63 349.959 661.683 348.907 661.683 347.608C661.683 346.309 660.63 345.257 659.331 345.257C658.032 345.257 656.979 346.309 656.979 347.608C656.979 348.907 658.032 349.959 659.331 349.959Z" fill="#F2F2F2"/>
<path fill-rule="evenodd" clip-rule="evenodd" d="M816.949 314.592C813.852 312.495 809.744 311.946 806.043 311.946C791.586 311.946 777.999 317.307 766.262 325.295C759.831 329.672 754.078 335.246 748.999 341.049C746.067 344.4 743.453 348.023 741.602 352.054C740.353 354.775 739.496 357.61 738.915 360.533C738.207 364.097 737.644 367.732 737.39 371.354C737.289 372.781 736.461 380.35 738.833 380.478C738.819 380.665 738.816 380.843 738.831 381.002C733.679 389.055 730.497 398.491 727.545 407.438C724.977 415.224 722.689 423.075 721.204 431.13C719.247 441.734 717.963 452.499 717.352 463.255C717.222 465.567 717.131 467.88 717.054 470.194C716.988 472.169 716.921 474.143 716.856 476.118C716.784 478.331 716.394 480.878 716.746 483.077C717.053 484.993 718.711 484.703 718.785 482.797C718.873 480.495 718.859 478.188 718.96 475.885C719.094 472.827 719.232 469.769 719.382 466.713C720.423 445.478 724.332 424.556 731.546 404.498C734.465 396.381 737.81 388.698 742.11 381.189C745.889 374.587 750.437 368.196 755.085 362.244C759.601 356.459 764.298 350.808 769.833 345.907C774.325 341.93 779.266 338.465 784.341 335.242C790.794 331.147 797.231 327.152 804.224 324.009C807.854 322.376 811.555 320.913 815.216 319.345C815.875 319.063 816.581 318.79 817.216 318.463C819.325 317.374 818.627 315.733 816.949 314.592Z" fill="#C1DEE2"/>
<path fill-rule="evenodd" clip-rule="evenodd" d="M758.796 388.757C764.658 388.757 769.875 389.519 775.277 391.847C779.939 393.858 784.185 396.519 788.316 399.415C794.118 403.49 798.689 408.232 801.888 414.516C803.801 418.269 805.204 423.581 803.919 427.676C802.405 432.497 798.25 436.52 792.785 435.67C789.406 435.145 786.302 432.907 783.734 430.801C780.659 428.281 778.198 425.252 776.166 421.887C772.851 416.398 770.903 410.194 768.087 404.458C766.751 401.736 765.46 398.995 763.859 396.408C763.067 395.127 762.223 393.858 761.021 392.906C760.378 392.397 757.667 391.516 758.704 390.372C743.501 390.571 730.033 402.243 727.114 416.692C726.843 418.038 726.631 419.396 726.406 420.751C726.265 421.606 726.322 424.761 725.557 425.308C723.869 426.513 724.578 422.851 724.651 422.323C724.838 420.96 725.038 419.599 725.247 418.239C726.387 410.845 729.68 403.971 735.171 398.697C741.45 392.668 749.923 388.757 758.796 388.757Z" fill="#89C5CC"/>
<path fill-rule="evenodd" clip-rule="evenodd" d="M259.465 414.415C274.099 438.96 291.145 462.726 301.381 489.562C300.969 486.398 300.531 483.238 300.041 480.083C297.444 463.357 294.216 446.752 290.824 430.168C289.097 421.724 287.269 413.31 285.396 404.898C284.388 400.379 283.392 395.859 282.364 391.345C282.114 390.251 281.9 388.341 281.589 386.405C291.537 419.04 301.13 451.699 308.147 485.117C309.068 489.503 309.852 493.881 310.494 498.251C310.713 497.254 310.93 496.257 311.166 495.263C314.006 483.344 318.264 471.52 323.335 460.374C325.76 455.045 328.544 449.832 331.823 444.974C333.867 441.947 338.689 438.348 340.553 435.246C330.354 453.949 326.671 477.349 320.781 497.682C319.344 502.644 317.897 507.597 316.48 512.559C325.361 494.753 339.141 480.123 358.301 473.784C335.109 489.102 321.199 515.929 311.825 543.366C311.795 543.691 311.758 544.016 311.726 544.343C314.485 539.109 317.959 534.375 322.667 531.061C332.747 523.963 343.927 526.03 353.704 532.119C346.031 527.243 332.164 531.683 325.707 536.639C321.085 540.186 317.135 544.945 313.705 549.589C312.884 550.702 311.762 552.001 310.577 553.386C308.916 564.164 306.21 574.868 302.378 585.486C303.01 582.438 302.553 577.564 302.729 575.292C302.748 575.046 302.763 574.8 302.782 574.555C302.2 576.88 301.637 579.178 301.095 581.44C302.172 577.124 302.757 572.619 303.214 568.068C303.332 566.112 303.447 564.156 303.568 562.2C303.529 558.487 303.376 554.761 303.118 551.028C302.201 547.401 301.174 543.979 300.327 541.133C297.271 530.865 292.791 521.028 287.276 511.851C282.245 503.476 276.222 495.891 269.27 489.03C265.522 485.332 261.6 481.811 257.733 478.241C256.334 476.95 253.835 473.777 251.673 472.122C267.416 480.8 283.621 490.186 295.107 504.167C293.76 498.998 292.297 493.902 290.75 488.909C282.902 463.572 272.991 437.315 259.465 414.415Z" fill="#DDE3E9"/>
<path fill-rule="evenodd" clip-rule="evenodd" d="M275.194 553.351C275.194 581.488 277.423 604.297 307.339 604.297C337.255 604.297 339.484 581.488 339.484 553.351" fill="#C5CFD6"/>
<path d="M689.945 149.703C689.945 148.404 688.891 147.351 687.592 147.351C686.293 147.351 685.24 148.404 685.24 149.703V164.595C685.24 165.893 686.293 166.946 687.592 166.946C688.891 166.946 689.945 165.893 689.945 164.595V149.703Z" fill="#DDE3E9"/>
<path d="M700.921 137.162C700.921 135.864 699.868 134.811 698.569 134.811C697.27 134.811 696.217 135.864 696.217 137.162V164.595C696.217 165.893 697.27 166.946 698.569 166.946C699.868 166.946 700.921 165.893 700.921 164.595V137.162Z" fill="#DDE3E9"/>
<path d="M711.897 130.892C711.897 129.593 710.844 128.541 709.545 128.541C708.246 128.541 707.193 129.593 707.193 130.892V164.595C707.193 165.893 708.246 166.946 709.545 166.946C710.844 166.946 711.897 165.893 711.897 164.595V130.892Z" fill="#DDE3E9"/>
<path d="M722.874 137.162C722.874 135.864 721.821 134.811 720.522 134.811C719.223 134.811 718.169 135.864 718.169 137.162V164.595C718.169 165.893 719.223 166.946 720.522 166.946C721.821 166.946 722.874 165.893 722.874 164.595V137.162Z" fill="#DDE3E9"/>
<path d="M733.85 124.622C733.85 123.323 732.797 122.27 731.498 122.27C730.199 122.27 729.146 123.323 729.146 124.622V164.595C729.146 165.893 730.199 166.946 731.498 166.946C732.797 166.946 733.85 165.893 733.85 164.595V124.622Z" fill="#C5CFD6"/>
<path fill-rule="evenodd" clip-rule="evenodd" d="M299.499 362.309C299.499 353.578 306.556 346.432 315.179 346.432V362.309L304.463 373.865C301.415 371.039 299.499 366.895 299.499 362.309Z" fill="#F2F2F2"/>
<path fill-rule="evenodd" clip-rule="evenodd" d="M314.764 362.108H330.599C330.599 366.2 328.929 370.034 326.29 372.821C323.386 375.868 319.252 377.784 314.764 377.784C310.63 377.784 306.847 376.131 303.943 373.518L314.764 362.108Z" fill="#AFB9C5"/>
<path fill-rule="evenodd" clip-rule="evenodd" d="M330.86 362.108C330.86 353.488 323.802 346.432 315.179 346.432V362.108H330.86ZM307.339 346.432L313.611 360.54L299.499 354.27C300.894 350.613 304.028 347.828 307.339 346.432Z" fill="#C5CFD6"/>
<path fill-rule="evenodd" clip-rule="evenodd" d="M809.72 369.302C808.207 370.901 806.075 371.905 803.707 371.905C799.144 371.905 795.443 368.221 795.443 363.676C795.443 359.13 799.144 355.446 803.707 355.446V340.162C790.731 340.162 780.108 350.746 780.108 363.676C780.108 376.606 790.731 387.189 803.707 387.189C810.52 387.189 816.675 384.316 820.877 379.745L809.72 369.302Z" fill="#F2F2F2"/>
<path fill-rule="evenodd" clip-rule="evenodd" d="M803.629 340.162V355.446C808.176 355.446 811.861 359.13 811.861 363.676H827.149C827.149 350.746 816.565 340.162 803.629 340.162Z" fill="#AFB9C5"/>
<path fill-rule="evenodd" clip-rule="evenodd" d="M811.547 363.676C811.547 366.346 810.285 368.719 808.333 370.252L817.945 382.486C823.543 378.107 827.149 371.317 827.149 363.676H811.547Z" fill="#C5CFD6"/>
<path fill-rule="evenodd" clip-rule="evenodd" d="M660.191 153.233C659.033 154.459 657.391 155.228 655.565 155.228C652.056 155.228 649.213 152.404 649.213 148.919C649.213 145.434 652.056 142.609 655.565 142.609V130.892C645.584 130.892 637.415 139.006 637.415 148.919C637.415 158.832 645.584 166.946 655.565 166.946C660.808 166.946 665.546 164.743 668.776 161.238L660.191 153.233Z" fill="#F2F2F2"/>
<path fill-rule="evenodd" clip-rule="evenodd" d="M655.447 130.892V142.609C658.933 142.609 661.759 145.434 661.759 148.919H673.48C673.48 139.006 665.364 130.892 655.447 130.892Z" fill="#AFB9C5"/>
<path fill-rule="evenodd" clip-rule="evenodd" d="M661.777 148.919C661.777 150.921 660.833 152.702 659.367 153.851L666.577 163.027C670.775 159.742 673.48 154.65 673.48 148.919H661.777Z" fill="#C5CFD6"/>
<path fill-rule="evenodd" clip-rule="evenodd" d="M374.771 166.935C374.768 166.943 374.765 166.951 374.76 166.96C374.765 166.952 374.771 166.921 374.771 166.935Z" fill="#C5CFD6"/>
<path fill-rule="evenodd" clip-rule="evenodd" d="M374.764 166.947C374.764 166.949 374.762 166.952 374.762 166.955C374.762 166.947 374.777 166.923 374.764 166.947Z" fill="#C5CFD6"/>
<path fill-rule="evenodd" clip-rule="evenodd" d="M374.818 166.814C374.807 166.846 374.793 166.876 374.78 166.907C374.787 166.891 374.793 166.879 374.799 166.863C374.636 167.271 374.739 167.006 374.818 166.814Z" fill="#C5CFD6"/>
<path fill-rule="evenodd" clip-rule="evenodd" d="M374.783 166.909C374.777 166.923 374.77 166.939 374.764 166.954C374.718 167.042 374.783 166.909 374.783 166.909Z" fill="#C5CFD6"/>
<path fill-rule="evenodd" clip-rule="evenodd" d="M374.757 166.959C374.748 166.977 374.801 166.886 374.757 166.959V166.959Z" fill="#C5CFD6"/>
<path fill-rule="evenodd" clip-rule="evenodd" d="M374.764 166.948L374.768 166.944C374.766 166.946 374.766 166.948 374.764 166.948Z" fill="#C5CFD6"/>
<path d="M408.478 126.189H340.268C338.536 126.189 337.132 127.593 337.132 129.324V172.432C337.132 174.164 338.536 175.568 340.268 175.568H408.478C410.211 175.568 411.615 174.164 411.615 172.432V129.324C411.615 127.593 410.211 126.189 408.478 126.189Z" fill="#DDE3E9"/>
<path fill-rule="evenodd" clip-rule="evenodd" d="M365.357 140.297L343.404 175.568H387.31L365.357 140.297Z" fill="#AFB9C5"/>
<path fill-rule="evenodd" clip-rule="evenodd" d="M386.918 149.703L367.709 175.568H406.126L386.918 149.703Z" fill="#C5CFD6"/>
<path fill-rule="evenodd" clip-rule="evenodd" d="M395.15 149.703C399.047 149.703 402.206 146.545 402.206 142.649C402.206 138.752 399.047 135.595 395.15 135.595C391.253 135.595 388.094 138.752 388.094 142.649C388.094 146.545 391.253 149.703 395.15 149.703Z" fill="white"/>
<path fill-rule="evenodd" clip-rule="evenodd" d="M748.741 501.611C748.744 501.618 748.747 501.626 748.752 501.636C748.747 501.628 748.741 501.597 748.741 501.611Z" fill="#C5CFD6"/>
<path fill-rule="evenodd" clip-rule="evenodd" d="M748.748 501.623C748.748 501.624 748.75 501.628 748.75 501.631C748.75 501.623 748.735 501.598 748.748 501.623Z" fill="#C5CFD6"/>
<path fill-rule="evenodd" clip-rule="evenodd" d="M748.694 501.49C748.705 501.521 748.719 501.551 748.732 501.583C748.725 501.567 748.719 501.554 748.713 501.539C748.876 501.947 748.772 501.681 748.694 501.49Z" fill="#C5CFD6"/>
<path fill-rule="evenodd" clip-rule="evenodd" d="M748.729 501.585C748.736 501.599 748.742 501.615 748.748 501.629C748.794 501.718 748.729 501.585 748.729 501.585Z" fill="#C5CFD6"/>
<path fill-rule="evenodd" clip-rule="evenodd" d="M748.754 501.634C748.71 501.562 748.764 501.653 748.754 501.634V501.634Z" fill="#C5CFD6"/>
<path fill-rule="evenodd" clip-rule="evenodd" d="M748.749 501.624L748.745 501.62C748.747 501.622 748.747 501.624 748.749 501.624Z" fill="#C5CFD6"/>
<path d="M696.217 441.27H801.276C803.008 441.27 804.412 442.674 804.412 444.405V511.811C804.412 513.542 803.008 514.946 801.276 514.946H696.217C694.485 514.946 693.081 513.542 693.081 511.811V444.405C693.081 442.674 694.485 441.27 696.217 441.27Z" fill="#DDE3E9"/>
<path fill-rule="evenodd" clip-rule="evenodd" d="M763.074 462.432L795.263 514.946H730.886L763.074 462.432Z" fill="#AFB9C5"/>
<path fill-rule="evenodd" clip-rule="evenodd" d="M729.886 476.498L758.342 514.946H701.43L729.886 476.498Z" fill="#C5CFD6"/>
<path fill-rule="evenodd" clip-rule="evenodd" d="M717.777 476.541C711.932 476.541 707.193 471.803 707.193 465.959C707.193 460.116 711.932 455.378 717.777 455.378C723.623 455.378 728.362 460.116 728.362 465.959C728.362 471.803 723.623 476.541 717.777 476.541Z" fill="white"/>
<path fill-rule="evenodd" clip-rule="evenodd" d="M418.813 386.079C424.516 389.518 430.119 391.179 432.75 390.501C439.346 388.801 439.952 364.661 434.848 355.144C429.745 345.628 403.509 341.48 402.186 360.335C401.726 366.879 404.474 372.72 408.532 377.485L401.255 411.415H422.393L418.813 386.079Z" fill="#B28B67"/>
<path fill-rule="evenodd" clip-rule="evenodd" d="M392.97 354.059C392.288 353.382 391.915 352.416 391.593 351.499C391.259 350.546 390.934 349.583 390.712 348.591C390.268 346.61 390.263 344.33 391.677 342.792C392.81 341.558 394.51 341.004 396.08 340.884C397.126 340.804 398.2 340.95 399.202 341.28C400.196 341.607 401.054 342.259 402.017 342.663C402.054 340.527 402.42 338.293 403.503 336.47C404.545 334.715 406.207 333.73 408.099 333.47C410.041 333.203 411.96 333.658 413.698 334.598C414.133 334.833 414.565 335.08 414.977 335.36C415.323 335.594 415.682 335.876 416.087 335.971C416.54 336.076 416.763 335.815 417.057 335.485C417.402 335.099 417.79 334.758 418.2 334.456C420.016 333.121 422.399 332.572 424.502 333.372C425.471 333.741 426.415 334.367 427.072 335.23C427.658 336 428.076 337.22 428.885 337.755C429.229 337.983 429.471 337.682 429.784 337.459C430.253 337.124 430.701 336.754 431.176 336.429C431.843 335.971 432.566 335.63 433.34 335.45C434.473 335.188 436.039 335.249 436.362 336.734C436.484 337.291 436.391 337.888 436.351 338.45C436.298 339.221 436.242 339.992 436.174 340.763C436.124 341.347 436.06 341.912 435.949 342.487C435.89 342.793 435.706 343.363 435.837 343.67C436.002 344.054 436.758 343.836 437.081 343.849C437.72 343.875 438.362 343.987 438.952 344.26C439.41 344.472 439.891 344.783 440.084 345.308C440.203 345.63 440.172 345.961 440.116 346.293C440.048 346.691 440.126 346.902 440.176 347.304C441.034 346.882 444.006 345.943 444.38 347.48C444.505 347.992 444.221 348.571 444.004 349.002C443.625 349.76 443.128 350.452 442.619 351.113C441.558 352.49 440.292 353.679 438.929 354.694C440.526 355.404 440.943 357.499 439.56 358.747C438.95 359.298 438.129 359.421 437.359 359.385C437.077 359.372 436.671 359.264 436.449 359.313C436.33 359.339 436.203 359.44 436.037 359.452C434.95 359.526 433.724 359.265 432.662 359.023C430.77 358.594 428.978 357.696 427.515 356.33C427.139 355.98 426.829 355.778 426.325 355.783C425.882 355.788 425.447 355.909 425.005 355.92C423.834 355.95 422.779 355.378 421.692 354.997C421.627 356.466 421.208 358.083 420.607 359.404C420.118 360.482 419.096 360.639 418.091 360.733C414.877 361.035 411.652 360.697 408.435 360.702C411.55 361.407 414.768 361.697 417.855 362.525C419.25 362.9 418.185 363.841 417.588 364.493C416.606 365.567 415.875 366.898 415.369 368.299C413.845 366.312 411.152 365.003 408.766 365.614C406.13 366.288 404.274 369.854 405.959 372.419C406.938 373.907 408.705 374.482 410.176 375.121C409.029 376.314 408.751 378.076 408.061 379.561C407.72 380.293 407.242 381.12 406.481 381.376C406.199 381.47 405.868 381.479 405.646 381.708C405.371 381.993 405.306 382.311 404.954 382.556C403.55 383.531 401.359 383.456 400.114 382.182C398.99 381.03 399.283 379.208 400.222 378.04C398.727 377.416 396.002 376.614 396.597 374.284C393.357 374.069 385.49 368.812 389.838 364.971C387.452 363.621 385.259 360.323 386.792 357.416C387.973 355.178 390.718 354.178 392.97 354.059Z" fill="#191847"/>
<path fill-rule="evenodd" clip-rule="evenodd" d="M370.097 522.43H438.137L447.053 631.682H345.77L370.097 522.43Z" fill="#C5CFD6"/>
<path fill-rule="evenodd" clip-rule="evenodd" d="M370.097 522.43H391.024L403.549 631.682H345.77L370.097 522.43Z" fill="black" fill-opacity="0.1"/>
<path fill-rule="evenodd" clip-rule="evenodd" d="M475.521 544.075C467.875 560.297 455.927 599.675 455.927 599.675L466.07 604.311C466.07 604.311 491.806 562.917 507.534 534.621C506.801 540.99 506.055 548.162 505.363 555.701C503.725 573.561 505.362 612.146 506.244 623.292C506.798 630.297 516.313 628.83 517.2 623.274C517.351 622.333 517.964 619.029 518.879 614.1C523.364 589.931 535.104 526.675 535.125 511.186C535.133 504.954 522.962 499.355 515.708 503.713C510.725 498.393 501.294 495.328 495.876 504.114C492.432 509.7 484.249 525.558 475.521 544.075Z" fill="#B28B67"/>
<path fill-rule="evenodd" clip-rule="evenodd" d="M456.652 585.096L491.465 502.594C499.805 489.174 523.188 505.326 520.344 513.11C513.887 530.782 481.048 587.994 479.125 593.259L456.652 585.096Z" fill="#1F28CF"/>
<path fill-rule="evenodd" clip-rule="evenodd" d="M457.201 594.67C456.662 593.927 455.611 593.752 454.906 594.34C453.465 595.543 451.263 597.504 450.487 598.848C449.296 600.912 447.698 605.268 447.698 605.268C450.092 606.651 490.718 630.116 490.718 630.116C490.718 630.116 495.595 625.539 492.237 623.009C488.88 620.481 486.695 618.744 486.695 618.744L471.789 598.198C471.529 597.84 471.026 597.767 470.675 598.037L467.512 600.474C467.512 600.474 463.266 600.103 461.175 598.896C459.85 598.13 458.218 596.074 457.201 594.67Z" fill="#E4E4E4"/>
<path fill-rule="evenodd" clip-rule="evenodd" d="M506.266 617.75C505.427 617.376 504.429 617.75 504.113 618.612C503.466 620.375 502.538 623.175 502.538 624.727C502.538 627.11 503.332 631.682 503.332 631.682C506.095 631.682 553.006 631.682 553.006 631.682C553.006 631.682 554.943 625.279 550.771 624.767C546.599 624.257 543.84 623.846 543.84 623.846L520.661 613.508C520.257 613.328 519.785 613.517 519.617 613.925L518.095 617.619C518.095 617.619 514.233 619.422 511.818 619.422C510.288 619.422 507.848 618.457 506.266 617.75Z" fill="#E4E4E4"/>
<path fill-rule="evenodd" clip-rule="evenodd" d="M537.565 517.525C537.565 540.932 526.453 595.532 526.446 600.686L502.538 600.705C502.538 600.705 507.787 527.626 506.261 526.838C504.734 526.051 443.684 532.936 425.375 532.936C398.972 532.936 388.05 516.28 387.163 485.425H439.466C450.116 486.564 505.664 497.773 526.294 501.626C535.125 503.275 537.565 511.076 537.565 517.525Z" fill="#2B44FF"/>
<path fill-rule="evenodd" clip-rule="evenodd" d="M466.19 496.23C449.464 531.079 379.053 507.549 379.053 507.549C379.053 501.51 381.448 495.456 383.962 489.098C386.657 482.28 389.492 475.113 389.662 467.24C389.974 452.756 392.681 408.871 403.979 394.047C404.185 393.377 404.394 392.706 404.605 392.031L405.388 392.4C405.509 392.274 405.633 392.151 405.756 392.031L430.409 395.845C430.409 406.999 437.544 417.577 443.968 427.099C445.53 429.415 447.051 431.669 448.417 433.854C450.205 436.716 452.224 439.629 454.292 442.615C464.768 457.732 476.525 474.698 466.19 496.23Z" fill="#C1DEE2"/>
<path fill-rule="evenodd" clip-rule="evenodd" d="M434.602 489.643C436.25 481.131 437.32 475.449 437.811 472.596C450.944 487.443 458.531 494.952 460.572 495.124C464.411 495.449 467.247 492.043 468.055 493C469.39 496.965 465.619 506.889 458.412 508.332C454.971 509.022 449.645 501.922 447.451 499.407C446.589 498.417 442.305 495.162 434.602 489.643ZM457.288 444.264C460.692 444.264 462.521 445.671 464.534 448.512C466.547 451.353 468.452 464.751 465.22 464.751C461.988 464.751 448.447 459.572 448.447 456.09C448.447 452.608 457.686 451.133 457.686 448.512C457.686 445.891 453.883 444.264 457.288 444.264Z" fill="#B28B67"/>
<path fill-rule="evenodd" clip-rule="evenodd" d="M399.991 408.524C391.344 444.588 394.867 475.004 427.728 502.594C427.341 503.98 427.11 504.809 427.11 504.809C388.538 477.839 388.519 445.157 399.991 408.524Z" fill="black" fill-opacity="0.2"/>
<path fill-rule="evenodd" clip-rule="evenodd" d="M667.069 330.483C661.357 333.924 655.745 335.587 653.111 334.908C646.505 333.206 645.898 309.048 651.009 299.524C656.12 289.999 682.396 285.848 683.72 304.719C684.179 311.267 681.429 317.113 677.365 321.881L684.652 355.838H663.483L667.069 330.483Z" fill="#B28B67"/>
<path fill-rule="evenodd" clip-rule="evenodd" d="M663.074 288.547C665.865 288.089 673.376 287.775 674.762 287.775C675.647 287.775 676.607 287.977 677.131 287.165C677.56 286.499 677.403 285.374 677.531 284.601C677.68 283.705 677.892 282.819 678.105 281.936C678.713 279.422 679.634 277.031 680.92 274.786C683.336 270.574 686.874 267.274 691.341 265.355C696.274 263.235 701.855 262.749 707.161 263.179C712.839 263.639 717.979 265.513 723.34 267.277C728.449 268.957 733.799 269.618 739.142 268.798C744.526 267.971 748.594 265.054 753.134 262.285C757.782 259.451 763.095 257.598 768.59 258.024C773.72 258.421 778.448 260.539 782.689 263.368C786.662 266.014 789.931 269.198 791.782 273.679C793.773 278.5 793.765 283.791 790.496 288.052C785.76 294.226 776.957 295.824 769.635 295.664C765.4 295.573 761.241 294.8 757.242 293.395C751.91 291.519 747.302 288.342 742.314 285.763C739.972 284.553 737.552 283.559 735.016 282.843C732.554 282.149 730.13 281.83 727.902 283.316C725.544 284.889 723.431 286.434 720.734 287.418C718.147 288.362 715.407 288.89 712.65 288.869C707.286 288.828 702 287.157 696.791 286.038C692.543 285.126 687.998 284.217 683.667 285.094C681.859 285.46 679.22 286.215 678.567 288.093C689.552 290.083 693.867 303.665 690.77 313.634C689.098 319.016 679.051 325.306 675.145 322.478C672.67 320.685 674.173 318.332 675.145 316.779C677.007 313.804 677.645 309.983 674.199 307.913C671.227 306.126 668.101 310.368 668.042 310.364C667.226 310.299 660.166 306.308 655.304 300.485C650.505 300.769 649.778 297.607 650.923 295.02C652.069 292.434 659.219 289.179 663.074 288.547Z" fill="#191847"/>
<path fill-rule="evenodd" clip-rule="evenodd" d="M698.736 430.297L665.593 538.826L649.539 631.121H636.95L653.915 430.297H698.736Z" fill="#997659"/>
<path fill-rule="evenodd" clip-rule="evenodd" d="M710.593 430.297C708.342 489.885 710.991 520.621 711.494 526.035C711.998 531.449 718.897 566.552 735.23 632.938L721.816 628.324C696.004 567.438 687.208 535.795 684.248 527.799C681.287 519.805 673.424 487.304 660.659 430.297H710.593Z" fill="#B28B67"/>
<path fill-rule="evenodd" clip-rule="evenodd" d="M732.879 627.186C733.718 626.812 734.717 627.185 735.033 628.048C735.68 629.814 736.607 632.617 736.607 634.171C736.607 636.557 735.813 641.135 735.813 641.135C733.05 641.135 686.139 641.135 686.139 641.135C686.139 641.135 684.203 634.723 688.375 634.212C692.546 633.701 695.306 633.289 695.306 633.289L718.484 622.939C718.888 622.759 719.36 622.947 719.529 623.356L721.051 627.054C721.051 627.054 724.913 628.86 727.327 628.86C728.857 628.86 731.297 627.894 732.879 627.186Z" fill="#E4E4E4"/>
<path fill-rule="evenodd" clip-rule="evenodd" d="M650.091 627.186C650.93 626.812 651.929 627.185 652.245 628.048C652.891 629.814 653.819 632.617 653.819 634.171C653.819 636.557 653.025 641.135 653.025 641.135C650.262 641.135 603.351 641.135 603.351 641.135C603.351 641.135 601.414 634.723 605.586 634.212C609.758 633.701 612.518 633.289 612.518 633.289L635.696 622.939C636.1 622.759 636.573 622.947 636.74 623.356L638.263 627.054C638.263 627.054 642.124 628.86 644.539 628.86C646.069 628.86 648.509 627.894 650.091 627.186Z" fill="#E4E4E4"/>
<path fill-rule="evenodd" clip-rule="evenodd" d="M703.14 430.297L689.048 485.591H646.007L652.424 430.297H703.14Z" fill="#69A1AC"/>
<path fill-rule="evenodd" clip-rule="evenodd" d="M711.066 430.297C718.021 451.179 713.708 485.591 713.708 485.591H669.786L657.709 430.297H711.066Z" fill="#89C5CC"/>
<path fill-rule="evenodd" clip-rule="evenodd" d="M758.991 458.109C755.703 453.286 733.54 388.392 733.54 388.392L714.423 391.151C714.423 391.151 746.206 458.727 748.021 461.87C750.38 465.952 748.291 472.659 746.875 477.208C746.656 477.911 746.452 478.563 746.285 479.145C749.258 480.001 750.389 478.303 751.582 476.512C752.929 474.489 754.355 472.349 758.601 473.64C760.241 474.138 761.817 474.779 763.357 475.404C768.675 477.566 773.561 479.551 779.175 474.904C780.065 474.167 780.815 471.759 777.987 470.356C770.942 466.862 760.599 460.466 758.991 458.109ZM594.255 454.755L615.611 427.192L625.824 440.227L602.223 458.979C597.197 470.027 594.024 474.942 592.704 473.722C591.591 472.694 591.847 471.36 592.083 470.131C592.267 469.174 592.439 468.28 591.941 467.645C590.805 466.195 585.766 467.824 581.051 469.575C576.336 471.326 577.126 468.783 577.985 467.393C582.063 463.044 587.486 458.831 594.255 454.755Z" fill="#B28B67"/>
<path fill-rule="evenodd" clip-rule="evenodd" d="M667.647 342.438L659.912 342.206C653.914 385.848 596.805 423.046 595.258 439.262C594.691 445.21 599.249 447.535 597.352 449.589L608.177 455.381C609.567 453.211 613.613 456.254 620.674 452.736C627.734 449.219 674.633 392.134 667.647 342.438Z" fill="#DB2721"/>
<path fill-rule="evenodd" clip-rule="evenodd" d="M680.231 331.707C681.925 331.347 683.591 332.429 683.951 334.122L685.107 339.555C700.856 348.473 740.671 376.141 758.387 435.571C760.248 441.814 758.984 445.476 757.975 448.401C757.285 450.403 756.712 452.06 757.341 453.963L744.99 459.307C744.788 457.865 743.014 456.995 740.726 455.874C737.399 454.243 732.984 452.079 730.729 446.845C728.591 441.883 725.615 435.73 722.137 428.908C723.237 438.435 722.661 447.421 719.747 455.205C712.477 474.626 653.025 462.8 644.516 445.225C639.976 435.847 643.299 426.97 647.695 415.231C653.275 400.329 660.583 380.815 655.726 349.803L653.754 340.535C653.394 338.842 654.475 337.177 656.169 336.817L680.231 331.707Z" fill="#FF4133"/>
</svg>
