<svg width="1193" height="602" viewBox="0 0 1193 602" fill="none" xmlns="http://www.w3.org/2000/svg">
<path d="M404.536 81.0907C403.064 81.0907 401.741 80.8347 400.568 80.3227C399.416 79.7894 398.509 79.064 397.848 78.1467C397.187 77.208 396.845 76.1307 396.824 74.9147H399.928C400.035 75.96 400.461 76.8454 401.208 77.5707C401.976 78.2747 403.085 78.6267 404.536 78.6267C405.923 78.6267 407.011 78.2854 407.8 77.6027C408.611 76.8987 409.016 76.0027 409.016 74.9147C409.016 74.0614 408.781 73.368 408.312 72.8347C407.843 72.3014 407.256 71.896 406.552 71.6187C405.848 71.3414 404.899 71.0427 403.704 70.7227C402.232 70.3387 401.048 69.9547 400.152 69.5707C399.277 69.1867 398.52 68.5894 397.88 67.7787C397.261 66.9467 396.952 65.8374 396.952 64.4507C396.952 63.2347 397.261 62.1574 397.88 61.2187C398.499 60.28 399.363 59.5547 400.472 59.0427C401.603 58.5307 402.893 58.2747 404.344 58.2747C406.435 58.2747 408.141 58.7974 409.464 59.8427C410.808 60.888 411.565 62.2747 411.736 64.0027H408.536C408.429 63.1494 407.981 62.4027 407.192 61.7627C406.403 61.1014 405.357 60.7707 404.056 60.7707C402.84 60.7707 401.848 61.0907 401.08 61.7307C400.312 62.3494 399.928 63.224 399.928 64.3547C399.928 65.1654 400.152 65.8267 400.6 66.3387C401.069 66.8507 401.635 67.2454 402.296 67.5227C402.979 67.7787 403.928 68.0774 405.144 68.4187C406.616 68.824 407.8 69.2294 408.696 69.6347C409.592 70.0187 410.36 70.6267 411 71.4587C411.64 72.2694 411.96 73.3787 411.96 74.7867C411.96 75.8747 411.672 76.8987 411.096 77.8587C410.52 78.8187 409.667 79.5974 408.536 80.1947C407.405 80.792 406.072 81.0907 404.536 81.0907ZM419.157 58.5627V80.8667H416.245V58.5627H419.157ZM441.016 65.0267C440.398 63.7254 439.502 62.7227 438.328 62.0187C437.155 61.2934 435.79 60.9307 434.232 60.9307C432.675 60.9307 431.267 61.2934 430.008 62.0187C428.771 62.7227 427.79 63.7467 427.064 65.0907C426.36 66.4134 426.008 67.9494 426.008 69.6987C426.008 71.448 426.36 72.984 427.064 74.3067C427.79 75.6294 428.771 76.6534 430.008 77.3787C431.267 78.0827 432.675 78.4347 434.232 78.4347C436.408 78.4347 438.2 77.784 439.608 76.4827C441.016 75.1814 441.838 73.4214 442.072 71.2027H433.176V68.8347H445.176V71.0747C445.006 72.9094 444.43 74.5947 443.448 76.1307C442.467 77.6454 441.176 78.8507 439.576 79.7467C437.976 80.6214 436.195 81.0587 434.232 81.0587C432.163 81.0587 430.275 80.5787 428.568 79.6187C426.862 78.6374 425.507 77.2827 424.504 75.5547C423.523 73.8267 423.032 71.8747 423.032 69.6987C423.032 67.5227 423.523 65.5707 424.504 63.8427C425.507 62.0934 426.862 60.7387 428.568 59.7787C430.275 58.7974 432.163 58.3067 434.232 58.3067C436.6 58.3067 438.691 58.8934 440.504 60.0667C442.339 61.24 443.672 62.8934 444.504 65.0267H441.016ZM466.562 80.8667H463.651L451.939 63.1067V80.8667H449.027V58.5307H451.939L463.651 76.2587V58.5307H466.562V80.8667ZM474.439 60.9307V68.3867H482.567V70.7867H474.439V78.4667H483.527V80.8667H471.527V58.5307H483.527V60.9307H474.439ZM494.877 58.5627C497.309 58.5627 499.41 59.0214 501.181 59.9387C502.973 60.8347 504.338 62.1254 505.277 63.8107C506.237 65.496 506.717 67.48 506.717 69.7627C506.717 72.0454 506.237 74.0294 505.277 75.7147C504.338 77.3787 502.973 78.6587 501.181 79.5547C499.41 80.4294 497.309 80.8667 494.877 80.8667H487.933V58.5627H494.877ZM494.877 78.4667C497.757 78.4667 499.954 77.7094 501.469 76.1947C502.983 74.6587 503.741 72.5147 503.741 69.7627C503.741 66.9894 502.973 64.824 501.437 63.2667C499.922 61.7094 497.735 60.9307 494.877 60.9307H490.845V78.4667H494.877ZM521.937 58.5627V72.6747C521.937 74.6587 522.417 76.1307 523.377 77.0907C524.358 78.0507 525.713 78.5307 527.441 78.5307C529.148 78.5307 530.481 78.0507 531.441 77.0907C532.422 76.1307 532.913 74.6587 532.913 72.6747V58.5627H535.825V72.6427C535.825 74.4987 535.452 76.0667 534.705 77.3467C533.958 78.6054 532.945 79.544 531.665 80.1627C530.406 80.7814 528.988 81.0907 527.409 81.0907C525.83 81.0907 524.401 80.7814 523.121 80.1627C521.862 79.544 520.86 78.6054 520.113 77.3467C519.388 76.0667 519.025 74.4987 519.025 72.6427V58.5627H521.937ZM555.595 65.0907C555.595 66.9467 554.955 68.4934 553.675 69.7307C552.416 70.9467 550.485 71.5547 547.883 71.5547H543.595V80.8667H540.683V58.5627H547.883C550.4 58.5627 552.309 59.1707 553.611 60.3867C554.933 61.6027 555.595 63.1707 555.595 65.0907ZM547.883 69.1547C549.504 69.1547 550.699 68.8027 551.467 68.0987C552.235 67.3947 552.619 66.392 552.619 65.0907C552.619 62.3387 551.04 60.9627 547.883 60.9627H543.595V69.1547H547.883ZM574.817 81.0907C573.345 81.0907 572.023 80.8347 570.849 80.3227C569.697 79.7894 568.791 79.064 568.129 78.1467C567.468 77.208 567.127 76.1307 567.105 74.9147H570.209C570.316 75.96 570.743 76.8454 571.489 77.5707C572.257 78.2747 573.367 78.6267 574.817 78.6267C576.204 78.6267 577.292 78.2854 578.081 77.6027C578.892 76.8987 579.297 76.0027 579.297 74.9147C579.297 74.0614 579.063 73.368 578.593 72.8347C578.124 72.3014 577.537 71.896 576.833 71.6187C576.129 71.3414 575.18 71.0427 573.985 70.7227C572.513 70.3387 571.329 69.9547 570.433 69.5707C569.559 69.1867 568.801 68.5894 568.161 67.7787C567.543 66.9467 567.233 65.8374 567.233 64.4507C567.233 63.2347 567.543 62.1574 568.161 61.2187C568.78 60.28 569.644 59.5547 570.753 59.0427C571.884 58.5307 573.175 58.2747 574.625 58.2747C576.716 58.2747 578.423 58.7974 579.745 59.8427C581.089 60.888 581.847 62.2747 582.017 64.0027H578.817C578.711 63.1494 578.263 62.4027 577.473 61.7627C576.684 61.1014 575.639 60.7707 574.337 60.7707C573.121 60.7707 572.129 61.0907 571.361 61.7307C570.593 62.3494 570.209 63.224 570.209 64.3547C570.209 65.1654 570.433 65.8267 570.881 66.3387C571.351 66.8507 571.916 67.2454 572.577 67.5227C573.26 67.7787 574.209 68.0774 575.425 68.4187C576.897 68.824 578.081 69.2294 578.977 69.6347C579.873 70.0187 580.641 70.6267 581.281 71.4587C581.921 72.2694 582.241 73.3787 582.241 74.7867C582.241 75.8747 581.953 76.8987 581.377 77.8587C580.801 78.8187 579.948 79.5974 578.817 80.1947C577.687 80.792 576.353 81.0907 574.817 81.0907ZM589.375 58.5627V72.6747C589.375 74.6587 589.855 76.1307 590.815 77.0907C591.796 78.0507 593.151 78.5307 594.879 78.5307C596.585 78.5307 597.919 78.0507 598.879 77.0907C599.86 76.1307 600.351 74.6587 600.351 72.6747V58.5627H603.263V72.6427C603.263 74.4987 602.889 76.0667 602.142 77.3467C601.396 78.6054 600.383 79.544 599.103 80.1627C597.844 80.7814 596.425 81.0907 594.847 81.0907C593.268 81.0907 591.839 80.7814 590.559 80.1627C589.3 79.544 588.297 78.6054 587.551 77.3467C586.825 76.0667 586.463 74.4987 586.463 72.6427V58.5627H589.375ZM607.032 69.6987C607.032 67.5227 607.523 65.5707 608.504 63.8427C609.486 62.0934 610.819 60.728 612.504 59.7467C614.211 58.7654 616.099 58.2747 618.168 58.2747C620.6 58.2747 622.723 58.8614 624.536 60.0347C626.35 61.208 627.672 62.872 628.504 65.0267H625.016C624.398 63.6827 623.502 62.648 622.328 61.9227C621.176 61.1974 619.79 60.8347 618.168 60.8347C616.611 60.8347 615.214 61.1974 613.976 61.9227C612.739 62.648 611.768 63.6827 611.064 65.0267C610.36 66.3494 610.008 67.9067 610.008 69.6987C610.008 71.4694 610.36 73.0267 611.064 74.3707C611.768 75.6934 612.739 76.7174 613.976 77.4427C615.214 78.168 616.611 78.5307 618.168 78.5307C619.79 78.5307 621.176 78.1787 622.328 77.4747C623.502 76.7494 624.398 75.7147 625.016 74.3707H628.504C627.672 76.504 626.35 78.1574 624.536 79.3307C622.723 80.4827 620.6 81.0587 618.168 81.0587C616.099 81.0587 614.211 80.5787 612.504 79.6187C610.819 78.6374 609.486 77.2827 608.504 75.5547C607.523 73.8267 607.032 71.8747 607.032 69.6987ZM631.751 69.6987C631.751 67.5227 632.242 65.5707 633.223 63.8427C634.204 62.0934 635.538 60.728 637.223 59.7467C638.93 58.7654 640.818 58.2747 642.887 58.2747C645.319 58.2747 647.442 58.8614 649.255 60.0347C651.068 61.208 652.391 62.872 653.223 65.0267H649.735C649.116 63.6827 648.22 62.648 647.047 61.9227C645.895 61.1974 644.508 60.8347 642.887 60.8347C641.33 60.8347 639.932 61.1974 638.695 61.9227C637.458 62.648 636.487 63.6827 635.783 65.0267C635.079 66.3494 634.727 67.9067 634.727 69.6987C634.727 71.4694 635.079 73.0267 635.783 74.3707C636.487 75.6934 637.458 76.7174 638.695 77.4427C639.932 78.168 641.33 78.5307 642.887 78.5307C644.508 78.5307 645.895 78.1787 647.047 77.4747C648.22 76.7494 649.116 75.7147 649.735 74.3707H653.223C652.391 76.504 651.068 78.1574 649.255 79.3307C647.442 80.4827 645.319 81.0587 642.887 81.0587C640.818 81.0587 638.93 80.5787 637.223 79.6187C635.538 78.6374 634.204 77.2827 633.223 75.5547C632.242 73.8267 631.751 71.8747 631.751 69.6987ZM660.47 60.9307V68.3867H668.598V70.7867H660.47V78.4667H669.558V80.8667H657.558V58.5307H669.558V60.9307H660.47ZM681.036 81.0907C679.564 81.0907 678.241 80.8347 677.068 80.3227C675.916 79.7894 675.009 79.064 674.348 78.1467C673.687 77.208 673.345 76.1307 673.324 74.9147H676.428C676.535 75.96 676.961 76.8454 677.708 77.5707C678.476 78.2747 679.585 78.6267 681.036 78.6267C682.423 78.6267 683.511 78.2854 684.3 77.6027C685.111 76.8987 685.516 76.0027 685.516 74.9147C685.516 74.0614 685.281 73.368 684.812 72.8347C684.343 72.3014 683.756 71.896 683.052 71.6187C682.348 71.3414 681.399 71.0427 680.204 70.7227C678.732 70.3387 677.548 69.9547 676.652 69.5707C675.777 69.1867 675.02 68.5894 674.38 67.7787C673.761 66.9467 673.452 65.8374 673.452 64.4507C673.452 63.2347 673.761 62.1574 674.38 61.2187C674.999 60.28 675.863 59.5547 676.972 59.0427C678.103 58.5307 679.393 58.2747 680.844 58.2747C682.935 58.2747 684.641 58.7974 685.964 59.8427C687.308 60.888 688.065 62.2747 688.236 64.0027H685.036C684.929 63.1494 684.481 62.4027 683.692 61.7627C682.903 61.1014 681.857 60.7707 680.556 60.7707C679.34 60.7707 678.348 61.0907 677.58 61.7307C676.812 62.3494 676.428 63.224 676.428 64.3547C676.428 65.1654 676.652 65.8267 677.1 66.3387C677.569 66.8507 678.135 67.2454 678.796 67.5227C679.479 67.7787 680.428 68.0774 681.644 68.4187C683.116 68.824 684.3 69.2294 685.196 69.6347C686.092 70.0187 686.86 70.6267 687.5 71.4587C688.14 72.2694 688.46 73.3787 688.46 74.7867C688.46 75.8747 688.172 76.8987 687.596 77.8587C687.02 78.8187 686.167 79.5974 685.036 80.1947C683.905 80.792 682.572 81.0907 681.036 81.0907ZM699.817 81.0907C698.345 81.0907 697.023 80.8347 695.849 80.3227C694.697 79.7894 693.791 79.064 693.129 78.1467C692.468 77.208 692.127 76.1307 692.105 74.9147H695.209C695.316 75.96 695.743 76.8454 696.489 77.5707C697.257 78.2747 698.367 78.6267 699.817 78.6267C701.204 78.6267 702.292 78.2854 703.081 77.6027C703.892 76.8987 704.297 76.0027 704.297 74.9147C704.297 74.0614 704.063 73.368 703.593 72.8347C703.124 72.3014 702.537 71.896 701.833 71.6187C701.129 71.3414 700.18 71.0427 698.985 70.7227C697.513 70.3387 696.329 69.9547 695.433 69.5707C694.559 69.1867 693.801 68.5894 693.161 67.7787C692.543 66.9467 692.233 65.8374 692.233 64.4507C692.233 63.2347 692.543 62.1574 693.161 61.2187C693.78 60.28 694.644 59.5547 695.753 59.0427C696.884 58.5307 698.175 58.2747 699.625 58.2747C701.716 58.2747 703.423 58.7974 704.745 59.8427C706.089 60.888 706.847 62.2747 707.017 64.0027H703.817C703.711 63.1494 703.263 62.4027 702.473 61.7627C701.684 61.1014 700.639 60.7707 699.337 60.7707C698.121 60.7707 697.129 61.0907 696.361 61.7307C695.593 62.3494 695.209 63.224 695.209 64.3547C695.209 65.1654 695.433 65.8267 695.881 66.3387C696.351 66.8507 696.916 67.2454 697.577 67.5227C698.26 67.7787 699.209 68.0774 700.425 68.4187C701.897 68.824 703.081 69.2294 703.977 69.6347C704.873 70.0187 705.641 70.6267 706.281 71.4587C706.921 72.2694 707.241 73.3787 707.241 74.7867C707.241 75.8747 706.953 76.8987 706.377 77.8587C705.801 78.8187 704.948 79.5974 703.817 80.1947C702.687 80.792 701.353 81.0907 699.817 81.0907ZM724.135 58.5627V60.9307H714.439V68.4507H722.311V70.8187H714.439V80.8667H711.527V58.5627H724.135ZM730.5 58.5627V72.6747C730.5 74.6587 730.98 76.1307 731.94 77.0907C732.921 78.0507 734.276 78.5307 736.004 78.5307C737.71 78.5307 739.044 78.0507 740.004 77.0907C740.985 76.1307 741.476 74.6587 741.476 72.6747V58.5627H744.388V72.6427C744.388 74.4987 744.014 76.0667 743.267 77.3467C742.521 78.6054 741.508 79.544 740.228 80.1627C738.969 80.7814 737.55 81.0907 735.972 81.0907C734.393 81.0907 732.964 80.7814 731.684 80.1627C730.425 79.544 729.422 78.6054 728.676 77.3467C727.95 76.0667 727.588 74.4987 727.588 72.6427V58.5627H730.5ZM752.157 78.4987H759.965V80.8667H749.245V58.5627H752.157V78.4987ZM765.97 78.4987H773.778V80.8667H763.058V58.5627H765.97V78.4987ZM792.486 58.5627L785.222 72.4507V80.8667H782.31V72.4507L775.014 58.5627H778.246L783.75 69.8587L789.254 58.5627H792.486ZM799.334 58.5627L798.982 74.5627H796.55L796.198 58.5627H799.334ZM797.894 81.0587C797.339 81.0587 796.87 80.8667 796.486 80.4827C796.102 80.0987 795.91 79.6294 795.91 79.0747C795.91 78.52 796.102 78.0507 796.486 77.6667C796.87 77.2827 797.339 77.0907 797.894 77.0907C798.427 77.0907 798.875 77.2827 799.238 77.6667C799.622 78.0507 799.814 78.52 799.814 79.0747C799.814 79.6294 799.622 80.0987 799.238 80.4827C798.875 80.8667 798.427 81.0587 797.894 81.0587Z" fill="black"/>
<path d="M268.249 194.667C274.876 194.667 280.249 189.294 280.249 182.667C280.249 176.039 274.876 170.667 268.249 170.667C261.621 170.667 256.249 176.039 256.249 182.667C256.249 189.294 261.621 194.667 268.249 194.667Z" fill="#C19CFC"/>
<path d="M1138.36 344.31L1158.85 338.819L1153.36 318.329L1173.85 312.838L1168.36 292.348L1188.85 286.858" stroke="#00A7E5" stroke-width="8" stroke-linecap="round" stroke-linejoin="round"/>
<path d="M1039.19 134.447C1042.77 129.32 1047.55 125.144 1053.11 122.278C1058.67 119.413 1064.85 117.945 1071.1 118.002C1077.36 118.059 1083.5 119.639 1089.01 122.605C1094.52 125.571 1099.22 129.835 1102.7 135.026" stroke="#E2A21F" stroke-width="8"/>
<path d="M280.248 0L301.033 36H259.463L280.248 0Z" fill="#00CC67"/>
<path d="M24.2487 233.667L48.4977 247.667V275.667L24.2487 289.667L0 275.667V247.667L24.2487 233.667Z" fill="#D9DBE9"/>
<g clip-path="url(#clip0_38_10787)">
<path d="M485.335 482.852C491.82 468.087 495.915 451.05 496.301 431.293C498.175 334.659 607.439 260.088 728.646 342.053C849.853 424.018 742.73 649.509 742.73 649.509" stroke="#CCDDE2" stroke-width="4.47" stroke-miterlimit="10"/>
<path d="M400.593 649.509C395.237 645.301 354.411 605.383 378.933 582.537C389.411 572.786 411.962 561.399 434.553 544.039" stroke="#CCDDE2" stroke-width="4.47" stroke-miterlimit="10"/>
<path d="M692.738 407.299C693.178 409.586 694.334 411.674 696.037 413.262" stroke="#CCDDE2" stroke-width="4.47" stroke-miterlimit="10"/>
<path d="M597.58 451.176C596.74 451.398 596.03 451.557 595.468 451.687C595.047 451.761 594.701 451.835 594.462 451.869H594.411L594.082 451.926C594.082 451.926 594.048 451.886 594.025 451.886C588.346 447.718 590.09 439.96 590.09 439.96C607.07 442.635 610.591 428.88 610.591 428.88C610.369 422.287 609.114 419.186 606.218 417.403C603.191 415.506 598.364 415.018 590.987 413.428L589.766 413.155C578.794 410.662 573.677 399.401 571.656 393.154C571.185 391.77 570.805 390.356 570.52 388.923C558.094 393.591 550.314 400.201 545.833 405.159C544.061 370.012 579.339 375.06 579.339 375.06C585.276 375.146 591.175 376.008 596.887 377.627C598.182 378.195 599.42 378.763 600.601 379.331C601.169 379.621 601.771 379.933 602.305 380.257C602.839 380.58 603.441 380.898 603.963 381.222C604.344 381.444 604.73 381.682 605.099 381.932C612.86 386.857 619.063 393.883 622.988 402.195C623.044 402.307 623.093 402.423 623.136 402.541C623.315 402.926 623.472 403.32 623.607 403.722C631.592 438.66 606.956 448.66 597.58 451.176Z" fill="#3FBDF1"/>
<path d="M597.58 451.174C595.104 447.057 596.251 442.088 596.251 442.088C613.215 444.768 616.747 431.014 616.747 431.014C616.383 420.9 613.652 419.003 606.218 417.384C603.464 416.765 600.079 416.197 595.922 415.272C594.196 414.884 592.534 414.251 590.987 413.392C579.691 407.202 576.647 391.022 576.647 391.022C574.898 391.675 573.24 392.385 571.656 393.118C571.185 391.734 570.805 390.321 570.52 388.887C558.094 393.555 550.314 400.165 545.833 405.123C544.061 369.976 579.339 375.025 579.339 375.025C585.276 375.11 591.175 375.973 596.887 377.591C598.182 378.159 599.42 378.727 600.601 379.295C601.169 379.585 601.771 379.897 602.305 380.221C602.839 380.545 603.441 380.863 603.963 381.186C604.344 381.408 604.73 381.646 605.099 381.896C612.86 386.822 619.063 393.848 622.988 402.159C623.044 402.272 623.093 402.387 623.136 402.505C623.315 402.89 623.472 403.284 623.607 403.686C631.592 438.658 606.956 448.658 597.58 451.174Z" fill="#3FBDF1"/>
<path d="M657.113 606.729C659.737 623.857 662.945 640.707 666.296 649.509H515.683C497.55 598.023 506.148 541.778 506.148 541.778L479.4 542.619C495.489 514.394 489.764 490.531 487.05 482.569C508.062 478.997 529.074 476.192 550.308 475.953C549.74 488.106 563.006 502.076 582.139 498.402C589.896 496.926 599.352 493.859 599.556 480.269L604.548 481.144C611.454 482.279 617.701 483.495 623.624 484.863C638.957 488.396 652.133 492.814 668.551 498.402C645.835 515.218 657.124 554.056 657.124 554.056L657.692 555.351L650.44 554.056C650.44 554.056 653.126 580.697 657.113 606.729Z" fill="#353642"/>
<path d="M500.85 232.425C515.867 232.425 528.041 220.251 528.041 205.234C528.041 190.216 515.867 178.042 500.85 178.042C485.833 178.042 473.659 190.216 473.659 205.234C473.659 220.251 485.833 232.425 500.85 232.425Z" fill="#3FBDF1"/>
<path d="M509.789 196.16C509.406 195.275 508.891 194.453 508.261 193.724C507.186 192.445 505.682 191.604 504.031 191.357C502.38 191.11 500.695 191.475 499.294 192.383C498.378 192.975 497.613 193.772 497.058 194.712C496.505 195.652 496.177 196.707 496.102 197.795C494.672 197.278 493.113 197.239 491.659 197.684C490.204 198.128 488.934 199.032 488.038 200.261C487.142 201.49 486.668 202.976 486.689 204.496C486.709 206.016 487.222 207.49 488.152 208.694C490.099 211.232 493.41 212.902 496.409 213.873C497.982 214.373 499.601 214.718 501.242 214.901C502.071 214.992 506.813 215.628 507.256 214.901C510.152 210.284 512.253 201.805 509.789 196.16Z" fill="white"/>
<path d="M455.1 196.398C453.316 196.199 451.51 196.074 449.71 195.977C447.779 196.074 445.848 196.216 443.918 196.455C437.819 197.135 431.846 198.664 426.171 200.998C423.629 202.043 421.178 203.299 418.845 204.752C417.161 205.764 415.549 206.889 414.018 208.119C412.887 206.499 411.981 204.734 411.32 202.872C410.196 199.73 409.784 196.378 410.112 193.057C410.44 189.736 411.5 186.529 413.217 183.668C414.934 180.806 417.263 178.361 420.039 176.508C422.814 174.656 425.966 173.441 429.267 172.954C432.569 172.466 435.937 172.717 439.13 173.687C442.322 174.658 445.26 176.325 447.73 178.568C450.201 180.811 452.144 183.574 453.418 186.658C454.692 189.742 455.266 193.071 455.1 196.403V196.398Z" fill="#3FBDF1"/>
<path d="M443.918 196.454C437.82 197.134 431.846 198.664 426.171 200.997C425.841 200.122 425.569 199.293 425.478 199.009C425.023 197.719 424.694 196.388 424.496 195.034C424.149 192.444 424.2 189.355 425.404 186.998C425.966 185.866 426.882 184.949 428.012 184.383C429.142 183.817 430.426 183.635 431.669 183.863C432.912 184.092 434.046 184.719 434.902 185.649C435.757 186.579 436.287 187.762 436.41 189.02C437.254 188.691 438.162 188.559 439.064 188.636C439.967 188.711 440.84 188.992 441.618 189.457C442.77 190.16 443.634 191.25 444.056 192.532C444.477 193.814 444.428 195.204 443.918 196.454Z" fill="white"/>
<path d="M418.844 204.746C417.161 205.757 415.548 206.883 414.017 208.114C412.991 208.908 412.006 209.753 411.064 210.646C409.858 211.797 408.795 213.09 407.901 214.497C407.064 215.806 406.338 217.184 405.732 218.614C404.815 220.802 404.084 223.062 403.545 225.372C402.466 230.354 401.814 235.419 401.597 240.512C397.604 238.518 394.399 235.237 392.497 231.199C390.595 227.16 390.108 222.6 391.114 218.251C392.12 213.902 394.56 210.018 398.043 207.225C401.525 204.432 405.845 202.893 410.309 202.855C410.655 202.855 410.979 202.855 411.325 202.855C413.933 202.98 416.489 203.623 418.844 204.746Z" fill="#3FBDF1"/>
<path d="M407.901 214.497C407.064 215.807 406.338 217.184 405.732 218.615C404.815 220.802 404.084 223.063 403.545 225.373C402.364 223.731 401.359 221.767 401.2 219.802C401.144 219.095 401.235 218.385 401.467 217.715C401.698 217.046 402.065 216.431 402.545 215.909C403.024 215.387 403.606 214.97 404.254 214.683C404.902 214.396 405.602 214.246 406.311 214.242C406.852 214.235 407.39 214.322 407.901 214.497Z" fill="white"/>
<g opacity="0.72">
<path opacity="0.72" d="M532.283 201.81C540.55 201.81 547.253 195.109 547.253 186.841C547.253 178.573 540.55 171.871 532.283 171.871C524.015 171.871 517.313 178.573 517.313 186.841C517.313 195.109 524.015 201.81 532.283 201.81Z" fill="#3FBDF1"/>
<path opacity="0.72" d="M538.78 189.51C539.148 189.129 539.458 188.697 539.7 188.226C540.127 187.411 540.241 186.469 540.022 185.575C539.802 184.682 539.263 183.9 538.508 183.376C538.016 183.037 537.453 182.816 536.862 182.73C536.271 182.645 535.668 182.697 535.1 182.882C535.069 182.043 534.766 181.236 534.236 180.585C533.706 179.934 532.979 179.473 532.163 179.271C531.348 179.07 530.489 179.139 529.717 179.469C528.945 179.799 528.301 180.371 527.882 181.099C526.996 182.627 526.837 184.66 526.974 186.392C527.046 187.298 527.209 188.194 527.462 189.067C527.587 189.51 528.251 192.054 528.706 192.133C531.659 192.633 536.418 191.935 538.78 189.51Z" fill="white"/>
</g>
<g opacity="0.72">
<path opacity="0.72" d="M525.611 354.444C531.513 354.444 536.299 349.659 536.299 343.756C536.299 337.853 531.513 333.068 525.611 333.068C519.708 333.068 514.923 337.853 514.923 343.756C514.923 349.659 519.708 354.444 525.611 354.444Z" fill="#3FBDF1"/>
<path opacity="0.72" d="M530.245 345.682C530.508 345.41 530.728 345.1 530.898 344.762C531.203 344.182 531.284 343.51 531.129 342.873C530.973 342.236 530.59 341.678 530.052 341.303C529.699 341.059 529.294 340.9 528.87 340.839C528.445 340.778 528.012 340.816 527.604 340.951C527.579 340.354 527.361 339.782 526.983 339.319C526.605 338.857 526.087 338.529 525.507 338.385C524.927 338.241 524.316 338.289 523.766 338.521C523.216 338.754 522.755 339.158 522.454 339.674C521.875 340.845 521.648 342.159 521.8 343.456C521.853 344.102 521.971 344.741 522.153 345.364C522.243 345.676 522.72 347.499 523.038 347.55C525.162 347.891 528.558 347.386 530.245 345.682Z" fill="white"/>
</g>
<path d="M501.836 215.456L494.722 230.498C492.14 235.956 494.473 242.473 499.931 245.054L514.973 252.168C520.431 254.749 526.948 252.416 529.529 246.959L536.643 231.916C539.225 226.458 536.892 219.941 531.434 217.36L516.392 210.246C510.934 207.665 504.417 209.998 501.836 215.456Z" fill="#3FBDF1"/>
<path d="M532.591 234.554L527.44 245.446C526.362 247.721 524.427 249.477 522.057 250.328C519.688 251.18 517.078 251.058 514.798 249.989L501.737 243.811C499.462 242.731 497.708 240.796 496.857 238.427C496.005 236.059 496.126 233.449 497.193 231.169L497.54 230.431C501.089 227.591 507.228 223.775 509.466 228.983C512.691 236.479 516.883 234.054 522.244 230.919C526.741 228.267 532.114 227.387 532.591 234.554Z" fill="white"/>
<path d="M512.344 222.971C514.564 222.971 516.365 221.171 516.365 218.95C516.365 216.73 514.564 214.929 512.344 214.929C510.123 214.929 508.323 216.73 508.323 218.95C508.323 221.171 510.123 222.971 512.344 222.971Z" fill="white"/>
<path d="M551.473 264.625L542.103 284.437C538.706 291.621 541.776 300.2 548.961 303.598L568.772 312.967C575.957 316.365 584.536 313.295 587.934 306.11L597.303 286.299C600.701 279.114 597.631 270.535 590.446 267.137L570.634 257.768C563.449 254.37 554.87 257.44 551.473 264.625Z" fill="#3FBDF1"/>
<path d="M591.959 289.778L585.144 304.117C583.72 307.108 581.17 309.414 578.051 310.53C574.932 311.646 571.497 311.483 568.499 310.074L551.326 301.953C548.334 300.529 546.029 297.979 544.912 294.86C543.796 291.741 543.96 288.307 545.368 285.308L545.828 284.337C550.502 280.612 558.578 275.574 561.525 282.429C565.779 292.299 571.293 289.107 578.352 284.978C584.252 281.508 591.334 280.339 591.959 289.778Z" fill="white"/>
<path d="M565.301 274.523C568.224 274.523 570.593 272.153 570.593 269.23C570.593 266.307 568.224 263.938 565.301 263.938C562.378 263.938 560.008 266.307 560.008 269.23C560.008 272.153 562.378 274.523 565.301 274.523Z" fill="white"/>
<path d="M589.965 208.182C590.754 209.634 591.328 211.193 591.669 212.81C592.274 215.786 592.096 218.868 591.153 221.755C590.211 224.641 588.535 227.234 586.291 229.279C584.514 230.852 582.248 232.085 580.442 233.732C579.129 234.867 578.163 236.35 577.653 238.008C577.558 238.574 577.331 239.109 576.989 239.57C575.933 240.705 574.905 238.922 573.99 238.598C572.523 238.123 570.933 238.202 569.521 238.82C565.81 240.35 561.685 240.554 557.84 239.399C553.996 238.244 550.667 235.8 548.414 232.478C546.16 229.156 545.121 225.159 545.469 221.16C545.817 217.161 547.532 213.404 550.326 210.521C553.109 207.682 556.755 205.882 560.27 204.019C563.371 202.372 566.454 200.612 569.816 199.641C577.733 197.289 586.143 201.214 589.965 208.182Z" fill="#3FBDF1"/>
<path d="M558.208 228.716C560.3 228.716 561.996 227.021 561.996 224.928C561.996 222.836 560.3 221.141 558.208 221.141C556.116 221.141 554.42 222.836 554.42 224.928C554.42 227.021 556.116 228.716 558.208 228.716Z" fill="white"/>
<path d="M568.413 223.259C570.506 223.259 572.201 221.564 572.201 219.471C572.201 217.379 570.506 215.684 568.413 215.684C566.321 215.684 564.625 217.379 564.625 219.471C564.625 221.564 566.321 223.259 568.413 223.259Z" fill="white"/>
<path d="M577.988 218.137C580.08 218.137 581.776 216.441 581.776 214.349C581.776 212.257 580.08 210.561 577.988 210.561C575.895 210.561 574.2 212.257 574.2 214.349C574.2 216.441 575.895 218.137 577.988 218.137Z" fill="white"/>
<path d="M707.582 463.27V463.361L706.18 495.606L705.396 513.274C705.396 512.621 705.43 511.945 705.47 511.292C695.776 508.049 683.322 503.438 673.713 500.178C654.802 493.727 640.553 488.769 623.613 484.873C622.59 479.938 621.625 469.352 626.378 453.9C633.193 431.854 635.436 409.484 631.972 405.163C631.939 405.113 631.897 405.071 631.847 405.038C629.382 396.15 622.863 401.903 622.863 401.903C622.863 401.903 622.903 401.994 622.92 402.045C621.563 399.796 620.072 397.63 618.456 395.559C618.51 395.238 618.595 394.922 618.712 394.617C620.807 388.313 631.972 386.797 631.972 386.797C648.316 388.001 656.914 395.287 661.253 404.856C665.075 416.935 662.82 430.031 662.326 442.423C662.128 447.795 661.361 456.052 665.461 460.402C669.249 467.563 678.778 464.468 681.362 463.685C682.203 463.446 684.384 463.299 687.246 463.208C693.078 463.066 701.659 463.174 706.89 463.264C707.145 463.27 707.367 463.27 707.582 463.27Z" fill="#3FBDF1"/>
<path d="M481.388 173.444C480.198 173.709 478.976 173.8 477.759 173.716C475.529 173.54 473.381 172.787 471.529 171.532C469.676 170.277 468.181 168.562 467.191 166.555C466.435 164.971 466.055 163.113 465.231 161.501C464.694 160.342 463.842 159.359 462.772 158.661C462.39 158.479 462.057 158.209 461.801 157.872C461.233 156.895 462.687 156.532 463.102 155.952C463.735 155.01 464.004 153.869 463.857 152.744C463.52 149.797 464.21 146.825 465.812 144.329C467.414 141.833 469.829 139.967 472.649 139.047C475.468 138.126 478.519 138.208 481.284 139.278C484.05 140.348 486.362 142.34 487.828 144.918C489.271 147.468 489.799 150.415 490.401 153.283C490.935 155.81 491.537 158.349 491.537 160.933C491.588 167.004 487.096 172.16 481.388 173.444Z" fill="#3FBDF1"/>
<path d="M476.004 150.335C477.544 150.335 478.793 149.087 478.793 147.547C478.793 146.007 477.544 144.758 476.004 144.758C474.464 144.758 473.216 146.007 473.216 147.547C473.216 149.087 474.464 150.335 476.004 150.335Z" fill="white"/>
<path d="M477.788 158.672C479.328 158.672 480.576 157.423 480.576 155.883C480.576 154.343 479.328 153.095 477.788 153.095C476.248 153.095 475 154.343 475 155.883C475 157.423 476.248 158.672 477.788 158.672Z" fill="white"/>
<path d="M479.463 166.498C481.003 166.498 482.252 165.25 482.252 163.71C482.252 162.17 481.003 160.921 479.463 160.921C477.923 160.921 476.675 162.17 476.675 163.71C476.675 165.25 477.923 166.498 479.463 166.498Z" fill="white"/>
<g opacity="0.72">
<path opacity="0.72" d="M647.646 274.825C659.351 274.825 668.84 265.336 668.84 253.631C668.84 241.926 659.351 232.437 647.646 232.437C635.941 232.437 626.452 241.926 626.452 253.631C626.452 265.336 635.941 274.825 647.646 274.825Z" fill="#3FBDF1"/>
<path opacity="0.72" d="M648.441 263.529C649.156 263.757 649.901 263.874 650.65 263.875C651.952 263.892 653.216 263.434 654.203 262.586C655.191 261.738 655.836 260.559 656.017 259.27C656.134 258.428 656.053 257.571 655.782 256.766C655.512 255.961 655.057 255.23 654.455 254.63C655.494 254.053 656.316 253.154 656.8 252.069C657.283 250.983 657.4 249.771 657.135 248.613C656.868 247.455 656.233 246.415 655.325 245.65C654.417 244.884 653.285 244.434 652.098 244.368C649.605 244.226 646.936 245.322 644.829 246.594C643.733 247.265 642.705 248.043 641.763 248.917C641.28 249.36 638.486 251.83 638.679 252.449C639.928 256.521 643.853 262.104 648.441 263.529Z" fill="white"/>
</g>
<path d="M657.488 340.133C656.163 342.059 654.564 343.781 652.741 345.244C649.366 347.911 645.356 349.656 641.105 350.309C636.854 350.962 632.505 350.5 628.486 348.97C625.356 347.726 622.358 345.642 619.121 344.427C616.848 343.494 614.359 343.219 611.937 343.632C611.162 343.873 610.341 343.928 609.54 343.791C607.439 343.177 609.029 340.747 608.853 339.384C608.517 337.227 607.405 335.268 605.724 333.875C601.392 330.167 598.474 325.076 597.465 319.464C596.456 313.852 597.418 308.063 600.188 303.078C602.958 298.094 607.365 294.22 612.664 292.113C617.963 290.005 623.827 289.795 629.264 291.515C634.636 293.219 639.23 296.678 643.83 299.932C647.885 302.8 652.059 305.611 655.455 309.2C663.457 317.724 663.86 330.865 657.488 340.133Z" fill="#3FBDF1"/>
<path d="M616.06 316.054C619.021 316.054 621.421 313.654 621.421 310.693C621.421 307.732 619.021 305.332 616.06 305.332C613.099 305.332 610.699 307.732 610.699 310.693C610.699 313.654 613.099 316.054 616.06 316.054Z" fill="white"/>
<path d="M629.468 325.471C632.429 325.471 634.829 323.071 634.829 320.11C634.829 317.149 632.429 314.749 629.468 314.749C626.507 314.749 624.107 317.149 624.107 320.11C624.107 323.071 626.507 325.471 629.468 325.471Z" fill="white"/>
<path d="M642.053 334.3C645.014 334.3 647.414 331.9 647.414 328.939C647.414 325.978 645.014 323.578 642.053 323.578C639.092 323.578 636.692 325.978 636.692 328.939C636.692 331.9 639.092 334.3 642.053 334.3Z" fill="white"/>
<g opacity="0.54">
<path opacity="0.54" d="M494.688 181.048C494.617 181.974 494.475 182.893 494.262 183.797L491.888 194.093C491.162 197.245 490.344 200.567 488.089 202.884C483.887 207.183 476.85 206.2 470.984 204.894L456.582 201.697C453.277 200.959 449.915 200.209 446.928 198.562C443.941 196.915 441.396 194.24 440.681 190.918C440.175 188.47 440.721 185.943 441.249 183.501L443.492 173.608C444.213 170.371 445.031 166.947 447.365 164.596C451.528 160.399 458.422 161.353 464.198 162.603L478.923 165.8C487.817 167.748 495.398 171.871 494.688 181.048Z" fill="#3FBDF1"/>
<path opacity="0.54" d="M474.829 181.325C475.445 181.899 475.899 182.625 476.146 183.43C476.392 184.236 476.423 185.092 476.234 185.912C476.045 186.733 475.644 187.489 475.07 188.105C474.497 188.722 473.771 189.176 472.966 189.424L468.576 190.769L464.192 192.11C463.385 192.358 462.527 192.389 461.705 192.199C460.882 192.009 460.125 191.606 459.508 191.03C458.891 190.454 458.437 189.726 458.192 188.918C457.946 188.111 457.918 187.252 458.11 186.431L459.138 181.956L460.166 177.486C460.356 176.666 460.758 175.909 461.333 175.294C461.907 174.677 462.633 174.223 463.438 173.977C464.244 173.73 465.1 173.699 465.921 173.887C466.742 174.076 467.499 174.477 468.116 175.05L471.472 178.179L474.829 181.325Z" fill="white"/>
</g>
<g opacity="0.54">
<path opacity="0.54" d="M656.529 200.866C656.457 201.792 656.315 202.711 656.103 203.615L653.729 213.928C653.002 217.08 652.184 220.402 649.93 222.713C645.727 227.018 638.691 226.03 632.824 224.729L618.422 221.526C615.117 220.794 611.755 220.038 608.768 218.397C605.781 216.756 603.237 214.07 602.521 210.753C602.016 208.306 602.561 205.778 603.089 203.336L605.338 193.483C606.054 190.241 606.871 186.822 609.205 184.465C613.368 180.274 620.262 181.222 626.038 182.477L640.741 185.652C649.657 187.577 657.238 191.706 656.529 200.866Z" fill="#3FBDF1"/>
<path opacity="0.54" d="M636.669 201.155C637.285 201.73 637.739 202.456 637.985 203.261C638.232 204.067 638.262 204.923 638.073 205.744C637.885 206.565 637.483 207.321 636.91 207.939C636.337 208.555 635.611 209.011 634.806 209.259L630.417 210.599L626.032 211.945C625.225 212.193 624.368 212.223 623.545 212.034C622.723 211.845 621.965 211.442 621.348 210.866C620.731 210.289 620.277 209.561 620.032 208.754C619.786 207.946 619.758 207.088 619.95 206.266L620.978 201.797L622.006 197.327C622.196 196.507 622.598 195.75 623.173 195.134C623.747 194.518 624.473 194.064 625.279 193.817C626.084 193.571 626.94 193.54 627.762 193.728C628.582 193.917 629.339 194.318 629.957 194.891L633.313 198.02L636.669 201.155Z" fill="white"/>
</g>
<g opacity="0.54">
<path opacity="0.54" d="M588.567 339.025C588.532 339.456 588.463 339.883 588.363 340.303L587.261 345.113C586.92 346.578 586.54 348.123 585.489 349.202C583.536 351.207 580.259 350.747 577.539 350.139L570.832 348.651C569.275 348.381 567.764 347.889 566.345 347.192C565.638 346.837 565.014 346.337 564.515 345.723C564.015 345.109 563.652 344.396 563.449 343.631C563.295 342.474 563.385 341.298 563.716 340.178L564.738 335.578C565.073 334.073 565.454 332.477 566.544 331.381C568.481 329.428 571.689 329.871 574.376 330.456L581.236 331.944C585.364 332.83 588.897 334.749 588.567 339.025Z" fill="#3FBDF1"/>
<path opacity="0.54" d="M579.316 339.155C579.603 339.422 579.816 339.76 579.931 340.136C580.046 340.511 580.06 340.91 579.972 341.292C579.884 341.675 579.697 342.027 579.429 342.314C579.161 342.601 578.822 342.812 578.447 342.926L576.408 343.551L574.364 344.176C573.988 344.293 573.589 344.309 573.205 344.222C572.822 344.135 572.468 343.949 572.18 343.681C571.892 343.414 571.679 343.075 571.565 342.699C571.449 342.323 571.435 341.923 571.524 341.541L572.024 339.434L572.501 337.35C572.588 336.966 572.774 336.612 573.042 336.324C573.309 336.036 573.648 335.824 574.023 335.708C574.399 335.593 574.799 335.579 575.181 335.668C575.564 335.757 575.917 335.945 576.204 336.214L577.765 337.668L579.316 339.155Z" fill="white"/>
</g>
<g opacity="0.54">
<path opacity="0.54" d="M517.87 139.607C518.335 139.85 518.784 140.125 519.21 140.431L523.98 143.918C525.446 144.98 526.973 146.133 527.666 147.802C528.955 150.909 526.899 154.31 524.94 157.036L520.13 163.738C519.1 165.333 517.845 166.771 516.405 168.008C514.905 169.144 512.963 169.905 511.106 169.525C509.737 169.252 508.556 168.389 507.42 167.599L502.82 164.3C501.316 163.221 499.737 162.028 499.038 160.324C497.795 157.258 499.799 153.924 501.713 151.238L506.591 144.366C509.516 140.221 513.304 137.228 517.87 139.607Z" fill="#3FBDF1"/>
<path opacity="0.54" d="M513.645 149.882C514.074 149.692 514.545 149.618 515.011 149.666C515.477 149.715 515.922 149.886 516.302 150.16C516.682 150.435 516.983 150.805 517.176 151.232C517.368 151.659 517.445 152.13 517.399 152.596L517.126 155.152L516.854 157.708C516.804 158.176 516.632 158.623 516.354 159.003C516.076 159.384 515.704 159.684 515.273 159.875C514.842 160.066 514.369 160.139 513.901 160.089C513.433 160.038 512.986 159.865 512.606 159.587L510.533 158.077L508.46 156.572C508.078 156.295 507.776 155.922 507.585 155.491C507.394 155.06 507.319 154.586 507.369 154.117C507.419 153.648 507.592 153.201 507.871 152.82C508.149 152.44 508.523 152.139 508.954 151.949L511.3 150.91L513.645 149.882Z" fill="white"/>
</g>
<path d="M742.707 568.3C742.704 568.399 742.693 568.498 742.673 568.595C742.664 568.619 742.664 568.645 742.673 568.669C741.874 573.973 739.672 578.966 736.295 583.133C736.255 583.168 736.238 583.224 736.204 583.258C731.014 589.727 723.489 594.395 715.874 597.325C708.093 600.352 700.205 601.573 694.589 601.153H694.464C687.592 600.642 680.05 601.533 673.451 602.771C672.758 602.902 672.066 603.027 671.373 603.175C667.017 604.049 662.718 605.14 658.459 606.344L657.658 606.565L657.124 606.707C653.149 580.674 650.457 554.017 650.457 554.017L731.667 568.448C735.322 569.111 739.071 569.061 742.707 568.3Z" fill="#3FBDF1"/>
<path d="M575.932 444.553C571.662 448.789 565.943 449.607 560.326 450.856C547.565 453.696 536.866 450.47 536.304 435.801C535.941 426.363 536.94 416.919 542.653 409.082C549.496 399.694 560.008 393.442 570.48 388.876C570.48 388.876 575.285 413.454 597.172 414.522C619.059 415.59 613.732 444.445 588.085 439.635" stroke="black" stroke-width="4.47" stroke-miterlimit="10"/>
<path d="M592.384 451.926C592.952 451.926 593.475 451.926 594.003 451.886C594.131 451.877 594.261 451.877 594.389 451.886H594.44L595.445 451.795" stroke="black" stroke-width="4.47" stroke-miterlimit="10"/>
<path d="M616.633 391.892C613.045 387.626 608.756 384.002 603.952 381.175C603.418 380.823 602.864 380.501 602.294 380.21C601.726 379.886 601.158 379.574 600.59 379.284C599.392 378.665 598.148 378.08 596.876 377.581C589.366 374.436 581.302 372.828 573.16 372.85C529.364 372.85 541.534 410.746 541.534 410.746" stroke="black" stroke-width="4.47" stroke-miterlimit="10"/>
<path d="M623.903 484.5C622.392 476.447 624.284 463.913 626.379 453.89C628.259 444.963 630.315 438.04 630.315 438.04C633.415 419.822 633.285 410.054 631.848 405.028C629.383 396.152 622.864 401.904 622.864 401.904" stroke="black" stroke-width="4.47" stroke-miterlimit="10"/>
<path d="M631.848 405.028C629.383 396.152 622.864 401.905 622.864 401.905C621.737 399.338 620.345 396.896 618.712 394.618C618.053 393.702 617.361 392.809 616.634 391.938C618.582 386.764 623.778 383.681 629.127 383.266C643.172 382.187 657.017 391.484 661.248 404.846C665.07 416.926 662.815 430.021 662.321 442.413C662.122 447.785 661.356 456.043 665.456 460.393C665.672 460.614 665.876 460.813 666.109 461.012C669.517 463.948 674.946 464.112 681.38 463.675C683.254 463.545 685.225 463.386 687.263 463.198C693.51 462.63 700.325 462.142 706.907 463.255L707.56 463.363C707.361 474.096 706.703 484.864 706.158 495.597C705.868 500.822 705.59 506.052 705.448 511.282C695.754 508.04 683.3 503.428 673.691 500.168L668.568 498.402C652.15 492.808 638.998 488.396 623.642 484.864C617.718 483.495 611.471 482.274 604.566 481.144L597.223 479.855C596.73 479.769 596.285 479.511 595.964 479.127C595.644 478.744 595.47 478.259 595.474 477.759V451.778C600.378 451.361 605.118 449.816 609.325 447.262C613.532 444.708 617.091 441.216 619.723 437.058C626.827 425.631 627.503 413.938 623.619 403.676C623.48 403.266 623.32 402.864 623.136 402.472C623.094 402.354 623.044 402.239 622.988 402.126C622.988 402.092 622.954 402.035 622.937 401.995" stroke="black" stroke-width="4.47" stroke-miterlimit="10"/>
<path d="M442.294 498.402C444.566 480.797 445.61 462.891 447.814 445.184" stroke="black" stroke-width="4.47" stroke-miterlimit="10"/>
<path d="M448.177 442.414C448.796 437.62 449.529 432.827 450.449 428.091C450.483 427.858 450.523 427.637 450.574 427.421C451.085 424.616 451.653 421.827 452.277 419.039C454.174 410.696 460.796 404.591 465.504 397.794L465.794 397.067C475.95 382.29 481.574 364.87 481.973 346.944C482.087 340.458 481.831 327.635 474.397 324.989C470.223 323.495 465.794 326.414 463.482 329.748C462.533 331.124 461.769 332.619 461.211 334.194" stroke="black" stroke-width="4.47" stroke-miterlimit="10"/>
<path d="M515.684 649.507C497.551 598.021 506.149 541.777 506.149 541.777L479.407 542.617L408.862 544.855C404.719 544.992 400.594 544.237 396.768 542.643C392.941 541.049 389.501 538.651 386.681 535.614C383.86 532.576 381.725 528.968 380.419 525.033C379.112 521.099 378.666 516.93 379.11 512.808L400.065 436.306" stroke="black" stroke-width="4.47" stroke-miterlimit="10"/>
<path d="M401.081 432.57L402.921 425.869L405.056 418.271" stroke="black" stroke-width="4.47" stroke-miterlimit="10"/>
<path d="M406.873 411.729L408.094 407.339C409.712 401.511 409.311 395.307 406.958 389.734L404.534 383.942C402.949 379.115 402.455 376.781 404.443 372.061C405.383 369.835 406.703 367.788 408.344 366.013C413.132 360.732 419.872 358.108 426.818 357.211C433.763 356.313 441.43 357.012 447.018 361.515C450.812 364.571 454.401 371.846 451.919 376.599C450.119 380.057 446.308 381.063 443.066 379.825C441.931 379.4 440.909 378.72 440.078 377.837C436.251 373.828 428.152 372.953 425.313 376.854" stroke="black" stroke-width="4.47" stroke-miterlimit="10"/>
<path d="M705.288 517.66C705.288 516.235 705.339 514.821 705.396 513.378V513.265C705.396 512.611 705.43 511.936 705.47 511.283" stroke="black" stroke-width="4.47" stroke-miterlimit="10"/>
<path d="M698.002 381.249C691.352 384.804 683.185 393.743 696.963 414.755C701.506 421.678 706.305 429.163 706.98 437.71C707.61 446.25 707.811 454.818 707.582 463.379" stroke="black" stroke-width="4.47" stroke-miterlimit="10"/>
<path d="M633.506 551.036L649.316 553.841L650.452 554.04L657.704 555.335L731.65 568.47C735.311 569.136 739.066 569.086 742.707 568.323C749.031 566.991 754.729 563.586 758.897 558.648C763.064 553.71 765.463 547.521 765.713 541.064L754.787 451.613L752.367 432.521C751.6 426.516 752.889 420.428 756.025 415.251L759.267 409.856C759.267 409.856 764.912 401.621 755.037 401.019C749.715 400.707 744.178 402.155 739.368 404.336C736.62 405.557 732.758 407.743 731.207 410.747C730.577 411.884 730.364 413.206 730.605 414.484C731.741 420.351 739.124 422.827 743.997 420.351" stroke="black" stroke-width="4.47" stroke-miterlimit="10"/>
<path d="M758.297 401.444C758.297 401.444 763.879 398.122 760.103 389.95C758.762 387.042 754.702 385.026 745.962 385.583C722.678 387.065 713.557 411.008 731.236 410.747" stroke="black" stroke-width="4.47" stroke-miterlimit="10"/>
<path d="M752.992 385.543C758.16 378.422 749.017 371.607 742.355 371.84C736.074 372.061 729.72 374.384 724.217 377.292C716.561 381.335 706.68 389.167 709.508 399.076C710.343 401.995 716.948 405.602 721.264 403.517" stroke="black" stroke-width="4.47" stroke-miterlimit="10"/>
<path d="M709.02 395.554C709.02 395.554 709.02 395.554 709.02 395.588C705.414 402.477 688.343 395.588 697.98 381.249C700.231 378.076 702.93 375.247 705.993 372.849C730.027 353.211 735.399 373.179 735.365 371.992" stroke="black" stroke-width="4.47" stroke-miterlimit="10"/>
<path d="M719.479 403.676C719.479 403.676 728.271 409.923 725.573 420.333" stroke="black" stroke-width="4.47" stroke-miterlimit="10"/>
<path d="M409.974 353.707C409.407 351.469 409.48 348.647 410.809 345.035C412.723 339.844 418.3 336.437 423.729 334.194C425.711 333.376 427.704 332.7 429.408 332.172C435.331 330.355 441.834 329.389 448.149 330.025C450.277 330.232 452.381 330.635 454.435 331.229C456.805 331.913 459.072 332.91 461.176 334.194C466.367 337.385 469.882 342.23 471.995 348.59C473.835 354.076 474.545 360.596 469.99 364.02" stroke="black" stroke-width="4.47" stroke-miterlimit="10"/>
<path d="M470.405 437.018L468.73 445.127C468.674 445.401 468.564 445.659 468.406 445.888C468.248 446.118 468.046 446.313 467.812 446.463C467.577 446.612 467.314 446.712 467.04 446.758C466.765 446.804 466.484 446.794 466.214 446.729C459.768 445.201 454.117 443.781 448.177 442.413C445.23 441.72 442.186 441.067 438.96 440.391C426.353 437.784 413.762 434.843 401.087 432.571C395.788 431.623 390.484 430.799 385.146 430.18C382.159 429.834 379.132 429.692 376.128 429.47C375.471 429.456 374.835 429.24 374.305 428.851C371.465 426.773 374.305 420.015 374.924 417.209C374.924 417.175 374.924 417.136 374.924 417.102C375.361 414.949 387.73 415.568 405.022 418.266C411.054 419.214 417.681 420.395 424.626 421.821C434.389 423.825 443.191 425.989 450.386 428.068C451.624 428.431 452.811 428.778 453.941 429.124C453.941 429.124 453.941 429.124 453.975 429.124C455.412 429.578 456.764 430.016 458.036 430.453C466.072 433.196 470.7 435.581 470.405 437.018Z" fill="#3FBDF1"/>
<path d="M470.405 437.018L468.73 445.127C468.674 445.401 468.564 445.659 468.406 445.888C468.248 446.118 468.046 446.313 467.812 446.463C467.577 446.612 467.314 446.712 467.04 446.758C466.765 446.804 466.484 446.794 466.214 446.729C459.768 445.201 454.117 443.781 448.177 442.413C445.23 441.72 442.186 441.067 438.96 440.391C426.353 437.784 413.762 434.843 401.087 432.571C395.788 431.623 390.484 430.799 385.146 430.18C382.159 429.834 379.132 429.692 376.128 429.47C375.471 429.456 374.835 429.24 374.305 428.851C371.465 426.773 374.305 420.015 374.924 417.209C374.924 417.175 374.924 417.136 374.924 417.102C375.361 414.949 387.73 415.568 405.022 418.266C411.054 419.214 417.681 420.395 424.626 421.821C434.389 423.825 443.191 425.989 450.386 428.068C451.624 428.431 452.811 428.778 453.941 429.124C453.941 429.124 453.941 429.124 453.975 429.124C455.412 429.578 456.764 430.016 458.036 430.453C466.072 433.196 470.7 435.581 470.405 437.018Z" stroke="black" stroke-width="4.47" stroke-miterlimit="10"/>
<path d="M452.721 372.231L454.333 375.462C456.361 377.683 459.166 379.086 463.011 378.12C470.553 376.246 471.297 369.993 469.985 364.019C469.759 362.934 469.467 361.865 469.11 360.816C467.344 355.546 464.612 351.304 460.785 348.209C458.065 346.007 454.922 344.387 451.551 343.45C448.804 342.656 445.969 342.204 443.112 342.104C437.497 341.91 431.89 342.679 426.535 344.375C421.179 346.017 413.853 348.839 409.958 353.683C409.085 354.748 408.394 355.949 407.913 357.238C406.715 360.498 406.51 363.139 406.931 365.274L407.334 367.262" stroke="black" stroke-width="4.47" stroke-miterlimit="10"/>
<path d="M454.81 331.355L456.684 323.592L458.911 314.448C459.225 313.13 459.264 311.761 459.026 310.426C458.788 309.092 458.278 307.821 457.527 306.693C456.776 305.565 455.801 304.603 454.663 303.868C453.524 303.132 452.246 302.64 450.909 302.42C450.385 302.333 449.855 302.292 449.324 302.295C447.077 302.29 444.896 303.055 443.145 304.464C441.395 305.873 440.18 307.84 439.704 310.036C439.136 312.682 438.426 315.902 437.643 319.531C436.899 322.973 436.075 326.743 435.201 330.719" stroke="black" stroke-width="4.47" stroke-miterlimit="10"/>
<path d="M432.566 342.924V342.904" stroke="black" stroke-width="2.98" stroke-miterlimit="10"/>
<path d="M425.331 376.848C424.763 379.636 424.439 381.391 424.456 381.692C424.456 381.692 424.456 381.692 424.456 381.732C421.997 398.258 414.762 407.094 406.891 411.7C402.077 414.439 396.7 416.041 391.171 416.385" stroke="black" stroke-width="4.47" stroke-miterlimit="10"/>
<path d="M443.111 379.818C443.111 379.818 429.925 414.965 450.545 427.425C451.635 428.08 452.775 428.649 453.952 429.129C455.364 429.715 456.82 430.184 458.308 430.531" stroke="black" stroke-width="4.47" stroke-miterlimit="10"/>
<path d="M467.639 446.564C467.639 446.564 467.73 448.188 447.814 445.184C440.999 444.162 431.839 442.594 419.521 440.226C411.798 438.75 405.38 437.438 400.065 436.308C372.135 430.333 374.299 428.857 374.299 428.857" stroke="black" stroke-width="4.47" stroke-miterlimit="10"/>
<path d="M523.754 248.997C519.506 271.514 505.513 295.218 488.544 310.432C481.604 316.679 473.534 321.035 464.823 322.75C462.15 323.293 459.429 323.573 456.702 323.585L458.911 314.447C459.453 312.197 459.189 309.827 458.164 307.752C457.138 305.676 455.417 304.026 453.3 303.089C452.535 302.761 451.735 302.522 450.915 302.379C450.39 302.292 449.857 302.25 449.325 302.254C447.073 302.251 444.888 303.021 443.136 304.436C441.385 305.852 440.174 307.827 439.704 310.029C439.358 311.687 438.938 313.567 438.484 315.623C416.903 301.357 407.544 270.844 408.584 246.066C408.913 237.832 409.367 226.99 412.973 218.608C414.19 215.621 416.007 212.915 418.312 210.658C428.534 201.037 442.527 196.648 456.957 195.989C468.033 196.511 478.933 198.959 489.169 203.224C508.25 211.282 528.161 225.571 523.754 248.997Z" fill="#3FBDF1"/>
<path d="M523.754 248.997C519.506 271.514 505.513 295.218 488.544 310.432C481.604 316.679 473.534 321.035 464.823 322.75L466.839 314.447C467.153 313.129 467.193 311.76 466.955 310.425C466.716 309.091 466.206 307.82 465.455 306.692C464.705 305.563 463.73 304.601 462.591 303.867C461.452 303.132 460.174 302.639 458.837 302.419C458.313 302.332 457.784 302.291 457.253 302.294C455.883 302.288 454.528 302.573 453.277 303.129C452.512 302.801 451.712 302.562 450.892 302.419C450.367 302.332 449.835 302.29 449.302 302.294C447.059 302.294 444.884 303.061 443.139 304.468C441.392 305.875 440.18 307.837 439.704 310.029C439.358 311.687 438.938 313.567 438.484 315.623C416.903 301.357 407.544 270.844 408.584 246.066C408.913 237.832 409.367 226.99 412.973 218.608C414.19 215.621 416.007 212.915 418.312 210.658C428.534 201.037 442.527 196.648 456.957 195.989C468.033 196.511 478.933 198.959 489.169 203.224C508.25 211.282 528.161 225.571 523.754 248.997Z" fill="#3FBDF1"/>
<path d="M523.754 249.002C519.511 271.52 505.518 295.224 488.544 310.438C479.457 318.581 468.491 323.534 456.684 323.59L458.911 314.447C459.225 313.129 459.264 311.76 459.026 310.425C458.788 309.091 458.278 307.82 457.527 306.692C456.776 305.563 455.801 304.601 454.663 303.867C453.524 303.131 452.246 302.639 450.909 302.419C450.385 302.332 449.855 302.291 449.324 302.294C447.077 302.288 444.896 303.055 443.145 304.463C441.394 305.872 440.18 307.839 439.704 310.035C439.136 312.681 438.426 315.901 437.643 319.53C411.008 307.723 399.508 273.416 400.661 246.072C400.985 237.837 401.439 226.996 405.051 218.614C406.266 215.626 408.083 212.919 410.389 210.663C430.499 191.752 465.101 193.058 489.168 203.23C508.244 211.288 528.16 225.571 523.754 249.002Z" stroke="black" stroke-width="4.47" stroke-miterlimit="10"/>
<path d="M523.64 249.815C528.234 255.312 532.545 264.524 528.751 278.21C528.168 280.37 527.333 282.453 526.264 284.417C520.233 295.207 508.591 297.098 500.742 296.985" stroke="black" stroke-width="4.47" stroke-miterlimit="10"/>
<path d="M520.142 261.326C524.117 266.085 527.791 273.621 526.258 284.429C526.014 286.164 525.656 287.88 525.185 289.568C519.506 309.967 498.658 308.962 491.502 307.968" stroke="black" stroke-width="4.47" stroke-miterlimit="10"/>
<path d="M408.804 289.458C404.363 290.373 379.233 285.216 378.927 264.266C378.836 261.427 379.372 258.602 380.494 255.992C384.43 247.121 394.811 244.316 400.791 243.402" stroke="black" stroke-width="4.47" stroke-miterlimit="10"/>
<path d="M404.284 278.959C399.741 279.237 375.599 270.622 378.217 249.831C378.53 247.015 379.454 244.301 380.926 241.88C386.037 233.64 396.737 232.317 402.779 232.226" stroke="black" stroke-width="4.47" stroke-miterlimit="10"/>
<path d="M506.148 541.784C506.148 541.784 506.665 537.837 509.505 528.921" stroke="black" stroke-width="4.47" stroke-miterlimit="10"/>
<path d="M599.545 480.233V480.273C599.341 493.852 589.891 496.93 582.128 498.406C562.995 502.063 549.712 488.11 550.297 475.957" stroke="black" stroke-width="4.47" stroke-miterlimit="10"/>
<path d="M553.926 405.522C553.926 405.522 554.494 411.769 549.059 419.827C547.605 421.997 552.636 422.888 553.835 423.292" stroke="black" stroke-width="4.47" stroke-miterlimit="10"/>
<path d="M575.839 419.042C579.066 413.451 577.998 406.793 573.454 404.17C568.91 401.546 562.61 403.95 559.383 409.541C556.155 415.131 557.222 421.789 561.767 424.413C566.311 427.036 572.611 424.632 575.839 419.042Z" stroke="black" stroke-width="4.47" stroke-miterlimit="10"/>
<path d="M553.294 411.81C556.521 406.194 555.437 399.515 550.872 396.891C546.307 394.267 539.989 396.693 536.762 402.309C533.535 407.924 534.619 414.603 539.184 417.227C543.75 419.851 550.066 417.425 553.294 411.81Z" stroke="black" stroke-width="4.48539" stroke-miterlimit="10"/>
<path d="M545.43 399.883C546.378 399.874 547.311 400.119 548.133 400.593C548.897 401.062 549.545 401.698 550.028 402.454C550.511 403.209 550.816 404.064 550.921 404.954C551.23 407.175 550.767 409.434 549.609 411.354C547.906 414.279 545.066 416.165 542.255 416.165C541.307 416.176 540.374 415.933 539.552 415.46C538.789 414.991 538.141 414.354 537.659 413.599C537.176 412.844 536.87 411.989 536.764 411.099C536.455 408.877 536.918 406.615 538.075 404.693C539.779 401.774 542.619 399.883 545.43 399.883ZM545.43 398.179C542.147 398.179 538.666 400.269 536.61 403.858C533.771 408.776 534.708 414.648 538.706 416.92C539.785 417.542 541.01 417.865 542.255 417.857C545.538 417.857 549.019 415.761 551.08 412.178C553.92 407.266 552.977 401.388 548.979 399.116C547.899 398.498 546.674 398.177 545.43 398.185V398.179Z" fill="white"/>
<path d="M551.078 412.186C553.916 407.269 552.978 401.414 548.982 399.107C544.987 396.8 539.446 398.916 536.608 403.832C533.77 408.748 534.708 414.604 538.703 416.911C542.699 419.217 548.239 417.102 551.078 412.186Z" fill="#3FBDF1"/>
<path d="M576.086 417.425C578.925 412.486 577.972 406.612 573.958 404.305C569.944 401.998 564.389 404.132 561.551 409.071C558.712 414.01 559.665 419.884 563.679 422.191C567.693 424.497 573.248 422.364 576.086 417.425Z" fill="#3FBDF1"/>
<path d="M553.852 407.583C553.852 407.583 555.556 405.044 559.4 409.537" stroke="black" stroke-width="4.47" stroke-miterlimit="10"/>
<path d="M570.568 413.788C571.493 412.577 571.41 410.959 570.384 410.174C569.356 409.391 567.774 409.737 566.849 410.948C565.924 412.16 566.007 413.778 567.034 414.562C568.061 415.346 569.644 415 570.568 413.788Z" fill="#353642"/>
<path d="M551.411 408.273C552.335 407.062 552.253 405.444 551.226 404.66C550.198 403.876 548.616 404.222 547.691 405.434C546.766 406.645 546.849 408.263 547.876 409.047C548.903 409.831 550.486 409.485 551.411 408.273Z" fill="#353642"/>
<path d="M565.511 433.416C553.88 443.297 547.775 434.495 547.775 434.495" stroke="black" stroke-width="4.47" stroke-miterlimit="10"/>
<path d="M442.294 490.218C452.351 488.418 462.5 487.01 472.467 485.17C477.328 484.276 482.185 483.409 487.039 482.569C508.664 478.889 530.256 476.026 552.12 475.935C553.176 475.936 554.196 475.554 554.993 474.862C555.789 474.168 556.308 473.211 556.453 472.165L556.857 469.138L559.406 450.266" stroke="black" stroke-width="4.47" stroke-miterlimit="10"/>
<path d="M595.445 451.778V451.687V451.231" stroke="black" stroke-width="4.47" stroke-miterlimit="10"/>
<path d="M650.446 554.039C650.446 554.039 653.127 580.697 657.113 606.729C659.737 623.857 662.946 640.707 666.296 649.509" stroke="black" stroke-width="4.47" stroke-miterlimit="10"/>
<path d="M657.113 606.728L657.641 606.586L658.448 606.364C662.707 605.16 667.006 604.092 671.362 603.195C672.055 603.048 672.748 602.923 673.44 602.792C678.298 601.896 683.222 601.416 688.16 601.355C690.347 601.355 692.442 601.281 694.447 601.173H694.572C702.971 600.696 709.991 599.351 715.857 597.346C725.437 594.086 731.906 589.077 736.188 583.279C736.222 583.245 736.239 583.188 736.279 583.154C739.394 578.832 741.566 573.905 742.656 568.69C742.648 568.666 742.648 568.64 742.656 568.616L742.713 568.343" stroke="black" stroke-width="4.47" stroke-miterlimit="10"/>
</g>
<defs>
<clipPath id="clip0_38_10787">
<rect width="488" height="488" fill="white" transform="translate(350 114)"/>
</clipPath>
</defs>
</svg>
