<svg width="621" height="574" viewBox="0 0 621 574" fill="none" xmlns="http://www.w3.org/2000/svg">
<mask id="mask0_38_11953" style="mask-type:luminance" maskUnits="userSpaceOnUse" x="0" y="0" width="621" height="574">
<path d="M620.32 0H0V573.767H620.32V0Z" fill="white"/>
</mask>
<g mask="url(#mask0_38_11953)">
<path d="M531.87 0H89.6148C84.4727 0 80.3042 4.16851 80.3042 9.31063V393.374C80.3042 398.516 84.4727 402.685 89.6148 402.685H531.87C537.012 402.685 541.18 398.516 541.18 393.374V9.31063C541.18 4.16851 537.012 0 531.87 0Z" fill="#F2F2F2"/>
<path d="M80.3042 9.31063C80.3042 4.16883 84.473 0 89.6148 0H531.87C537.011 0 541.18 4.16883 541.18 9.31063V31.4234H80.3042V9.31063Z" fill="#C5CFD6"/>
<path fill-rule="evenodd" clip-rule="evenodd" d="M95.4341 20.9488C98.005 20.9488 100.089 18.8644 100.089 16.2935C100.089 13.7226 98.005 11.6382 95.4341 11.6382C92.8632 11.6382 90.7788 13.7226 90.7788 16.2935C90.7788 18.8644 92.8632 20.9488 95.4341 20.9488Z" fill="#F2F2F2"/>
<path fill-rule="evenodd" clip-rule="evenodd" d="M109.4 20.9488C111.971 20.9488 114.055 18.8644 114.055 16.2935C114.055 13.7226 111.971 11.6382 109.4 11.6382C106.829 11.6382 104.745 13.7226 104.745 16.2935C104.745 18.8644 106.829 20.9488 109.4 20.9488Z" fill="#F2F2F2"/>
<path fill-rule="evenodd" clip-rule="evenodd" d="M123.366 20.9488C125.937 20.9488 128.021 18.8644 128.021 16.2935C128.021 13.7226 125.937 11.6382 123.366 11.6382C120.795 11.6382 118.711 13.7226 118.711 16.2935C118.711 18.8644 120.795 20.9488 123.366 20.9488Z" fill="#F2F2F2"/>
<path d="M513.248 153.625H450.401C445.259 153.625 441.091 157.794 441.091 162.936V370.097C441.091 375.239 445.259 379.408 450.401 379.408H513.248C518.39 379.408 522.559 375.239 522.559 370.097V162.936C522.559 157.794 518.39 153.625 513.248 153.625Z" fill="white"/>
<path d="M496.955 174.574H466.695C464.124 174.574 462.04 176.658 462.04 179.23V200.178C462.04 202.749 464.124 204.834 466.695 204.834H496.955C499.526 204.834 501.61 202.749 501.61 200.178V179.23C501.61 176.658 499.526 174.574 496.955 174.574Z" fill="#DDE3E9"/>
<path d="M496.955 214.144H466.695C464.124 214.144 462.04 216.229 462.04 218.8V238.585C462.04 241.156 464.124 243.24 466.695 243.24H496.955C499.526 243.24 501.61 241.156 501.61 238.585V218.8C501.61 216.229 499.526 214.144 496.955 214.144Z" fill="#AFB9C5"/>
<path d="M496.955 252.551H466.695C464.124 252.551 462.04 254.635 462.04 257.206V276.991C462.04 279.562 464.124 281.646 466.695 281.646H496.955C499.526 281.646 501.61 279.562 501.61 276.991V257.206C501.61 254.635 499.526 252.551 496.955 252.551Z" fill="#DDE3E9"/>
<path d="M496.955 329.363H466.695C464.124 329.363 462.04 331.448 462.04 334.019V353.804C462.04 356.375 464.124 358.459 466.695 358.459H496.955C499.526 358.459 501.61 356.375 501.61 353.804V334.019C501.61 331.448 499.526 329.363 496.955 329.363Z" fill="#DDE3E9"/>
<path d="M496.955 290.957H466.695C464.124 290.957 462.04 293.041 462.04 295.612V315.398C462.04 317.969 464.124 320.053 466.695 320.053H496.955C499.526 320.053 501.61 317.969 501.61 315.398V295.612C501.61 293.041 499.526 290.957 496.955 290.957Z" fill="#C5CFD6"/>
<path d="M513.248 50.0447H450.401C445.259 50.0447 441.091 54.2132 441.091 59.3553V135.004C441.091 140.146 445.259 144.315 450.401 144.315H513.248C518.39 144.315 522.559 140.146 522.559 135.004V59.3553C522.559 54.2132 518.39 50.0447 513.248 50.0447Z" fill="white"/>
<path fill-rule="evenodd" clip-rule="evenodd" d="M481.825 104.744C492.11 104.744 500.446 96.408 500.446 86.1232C500.446 75.8385 492.11 67.502 481.825 67.502C471.54 67.502 463.204 75.8385 463.204 86.1232C463.204 96.408 471.54 104.744 481.825 104.744Z" fill="#DDE3E9"/>
<path d="M507.429 109.4H456.221C454.292 109.4 452.729 110.963 452.729 112.891C452.729 114.82 454.292 116.383 456.221 116.383H507.429C509.357 116.383 510.921 114.82 510.921 112.891C510.921 110.963 509.357 109.4 507.429 109.4Z" fill="#DDE3E9"/>
<path d="M498.118 121.038H465.531C463.603 121.038 462.04 122.601 462.04 124.53C462.04 126.458 463.603 128.021 465.531 128.021H498.118C500.047 128.021 501.61 126.458 501.61 124.53C501.61 122.601 500.047 121.038 498.118 121.038Z" fill="#DDE3E9"/>
<path d="M427.125 50.0447H103.581C101.01 50.0447 98.9255 52.1289 98.9255 54.7V100.089C98.9255 102.66 101.01 104.745 103.581 104.745H427.125C429.696 104.745 431.78 102.66 431.78 100.089V54.7C431.78 52.1289 429.696 50.0447 427.125 50.0447Z" fill="white"/>
<mask id="mask1_38_11953" style="mask-type:luminance" maskUnits="userSpaceOnUse" x="109" y="66" width="266" height="23">
<path d="M374.753 66.4545H109.4V88.5672H374.753V66.4545Z" fill="white"/>
</mask>
<g mask="url(#mask1_38_11953)">
<path d="M371.261 66.4545H112.891C110.963 66.4545 109.4 68.0177 109.4 69.946V71.168C109.4 73.0963 110.963 74.6594 112.891 74.6594H371.261C373.19 74.6594 374.753 73.0963 374.753 71.168V69.946C374.753 68.0177 373.19 66.4545 371.261 66.4545Z" fill="#DDE3E9"/>
<path d="M284.022 80.1295H112.891C110.963 80.1295 109.4 81.6927 109.4 83.621V84.843C109.4 86.7713 110.963 88.3345 112.891 88.3345H284.022C285.95 88.3345 287.513 86.7713 287.513 84.843V83.621C287.513 81.6927 285.95 80.1295 284.022 80.1295Z" fill="#DDE3E9"/>
</g>
<path fill-rule="evenodd" clip-rule="evenodd" d="M396.208 85.5414C400.707 85.5414 404.355 81.894 404.355 77.3946C404.355 72.8952 400.707 69.2478 396.208 69.2478C391.708 69.2478 388.061 72.8952 388.061 77.3946C388.061 81.894 391.708 85.5414 396.208 85.5414Z" fill="#DDE3E9"/>
<path fill-rule="evenodd" clip-rule="evenodd" d="M396.208 80.886C398.137 80.886 399.7 79.323 399.7 77.3946C399.7 75.4661 398.137 73.9031 396.208 73.9031C394.28 73.9031 392.717 75.4661 392.717 77.3946C392.717 79.323 394.28 80.886 396.208 80.886Z" fill="#F2F2F2"/>
<path d="M427.125 114.055H103.581C101.01 114.055 98.9255 116.139 98.9255 118.71V154.789C98.9255 157.36 101.01 159.444 103.581 159.444H427.125C429.696 159.444 431.78 157.36 431.78 154.789V118.71C431.78 116.139 429.696 114.055 427.125 114.055Z" fill="white"/>
<mask id="mask2_38_11953" style="mask-type:luminance" maskUnits="userSpaceOnUse" x="109" y="127" width="266" height="20">
<path d="M374.753 127.672H109.4V146.293H374.753V127.672Z" fill="white"/>
</mask>
<g mask="url(#mask2_38_11953)">
<path d="M371.349 127.672H112.804C110.924 127.672 109.4 129.196 109.4 131.076C109.4 132.956 110.924 134.48 112.804 134.48H371.349C373.229 134.48 374.753 132.956 374.753 131.076C374.753 129.196 373.229 127.672 371.349 127.672Z" fill="#DDE3E9"/>
<path d="M284.109 139.019H112.804C110.924 139.019 109.4 140.543 109.4 142.423C109.4 144.303 110.924 145.828 112.804 145.828H284.109C285.989 145.828 287.513 144.303 287.513 142.423C287.513 140.543 285.989 139.019 284.109 139.019Z" fill="#DDE3E9"/>
</g>
<path fill-rule="evenodd" clip-rule="evenodd" d="M396.208 144.897C400.707 144.897 404.355 141.249 404.355 136.75C404.355 132.25 400.707 128.603 396.208 128.603C391.708 128.603 388.061 132.25 388.061 136.75C388.061 141.249 391.708 144.897 396.208 144.897Z" fill="#DDE3E9"/>
<path fill-rule="evenodd" clip-rule="evenodd" d="M396.208 140.241C398.137 140.241 399.7 138.678 399.7 136.75C399.7 134.821 398.137 133.258 396.208 133.258C394.28 133.258 392.717 134.821 392.717 136.75C392.717 138.678 394.28 140.241 396.208 140.241Z" fill="#F2F2F2"/>
<path d="M427.125 168.755H103.581C101.01 168.755 98.9255 170.839 98.9255 173.41V209.489C98.9255 212.06 101.01 214.144 103.581 214.144H427.125C429.696 214.144 431.78 212.06 431.78 209.489V173.41C431.78 170.839 429.696 168.755 427.125 168.755Z" fill="white"/>
<mask id="mask3_38_11953" style="mask-type:luminance" maskUnits="userSpaceOnUse" x="109" y="182" width="266" height="19">
<path d="M374.753 182.372H109.4V200.993H374.753V182.372Z" fill="white"/>
</mask>
<g mask="url(#mask3_38_11953)">
<path d="M371.349 182.372H112.804C110.924 182.372 109.4 183.896 109.4 185.776C109.4 187.656 110.924 189.18 112.804 189.18H371.349C373.229 189.18 374.753 187.656 374.753 185.776C374.753 183.896 373.229 182.372 371.349 182.372Z" fill="#DDE3E9"/>
<path d="M284.109 193.719H112.804C110.924 193.719 109.4 195.243 109.4 197.123C109.4 199.003 110.924 200.527 112.804 200.527H284.109C285.989 200.527 287.513 199.003 287.513 197.123C287.513 195.243 285.989 193.719 284.109 193.719Z" fill="#DDE3E9"/>
</g>
<path fill-rule="evenodd" clip-rule="evenodd" d="M396.208 199.597C400.707 199.597 404.355 195.949 404.355 191.45C404.355 186.95 400.707 183.303 396.208 183.303C391.708 183.303 388.061 186.95 388.061 191.45C388.061 195.949 391.708 199.597 396.208 199.597Z" fill="#DDE3E9"/>
<path fill-rule="evenodd" clip-rule="evenodd" d="M396.208 194.941C398.137 194.941 399.7 193.378 399.7 191.45C399.7 189.521 398.137 187.958 396.208 187.958C394.28 187.958 392.717 189.521 392.717 191.45C392.717 193.378 394.28 194.941 396.208 194.941Z" fill="#AFB9C5"/>
<path d="M427.125 332.855H103.581C101.01 332.855 98.9255 334.939 98.9255 337.51V373.589C98.9255 376.16 101.01 378.244 103.581 378.244H427.125C429.696 378.244 431.78 376.16 431.78 373.589V337.51C431.78 334.939 429.696 332.855 427.125 332.855Z" fill="white"/>
<mask id="mask4_38_11953" style="mask-type:luminance" maskUnits="userSpaceOnUse" x="109" y="346" width="266" height="20">
<path d="M374.753 346.472H109.4V365.093H374.753V346.472Z" fill="white"/>
</mask>
<g mask="url(#mask4_38_11953)">
<path d="M371.349 346.472H112.804C110.924 346.472 109.4 347.996 109.4 349.876C109.4 351.756 110.924 353.28 112.804 353.28H371.349C373.229 353.28 374.753 351.756 374.753 349.876C374.753 347.996 373.229 346.472 371.349 346.472Z" fill="#DDE3E9"/>
<path d="M284.109 357.819H112.804C110.924 357.819 109.4 359.343 109.4 361.223C109.4 363.103 110.924 364.627 112.804 364.627H284.109C285.989 364.627 287.513 363.103 287.513 361.223C287.513 359.343 285.989 357.819 284.109 357.819Z" fill="#DDE3E9"/>
</g>
<path fill-rule="evenodd" clip-rule="evenodd" d="M396.208 363.696C400.707 363.696 404.355 360.049 404.355 355.55C404.355 351.05 400.707 347.403 396.208 347.403C391.708 347.403 388.061 351.05 388.061 355.55C388.061 360.049 391.708 363.696 396.208 363.696Z" fill="#DDE3E9"/>
<path fill-rule="evenodd" clip-rule="evenodd" d="M396.208 359.041C398.137 359.041 399.7 357.478 399.7 355.55C399.7 353.621 398.137 352.058 396.208 352.058C394.28 352.058 392.717 353.621 392.717 355.55C392.717 357.478 394.28 359.041 396.208 359.041Z" fill="#F2F2F2"/>
<path d="M427.125 278.155H103.581C101.01 278.155 98.9255 280.239 98.9255 282.81V318.889C98.9255 321.46 101.01 323.544 103.581 323.544H427.125C429.696 323.544 431.78 321.46 431.78 318.889V282.81C431.78 280.239 429.696 278.155 427.125 278.155Z" fill="white"/>
<mask id="mask5_38_11953" style="mask-type:luminance" maskUnits="userSpaceOnUse" x="109" y="291" width="266" height="20">
<path d="M374.753 291.772H109.4V310.393H374.753V291.772Z" fill="white"/>
</mask>
<g mask="url(#mask5_38_11953)">
<path d="M371.349 291.772H112.804C110.924 291.772 109.4 293.296 109.4 295.176C109.4 297.056 110.924 298.58 112.804 298.58H371.349C373.229 298.58 374.753 297.056 374.753 295.176C374.753 293.296 373.229 291.772 371.349 291.772Z" fill="#DDE3E9"/>
<path d="M284.109 303.119H112.804C110.924 303.119 109.4 304.643 109.4 306.523C109.4 308.403 110.924 309.927 112.804 309.927H284.109C285.989 309.927 287.513 308.403 287.513 306.523C287.513 304.643 285.989 303.119 284.109 303.119Z" fill="#DDE3E9"/>
</g>
<path fill-rule="evenodd" clip-rule="evenodd" d="M396.208 308.996C400.707 308.996 404.355 305.349 404.355 300.85C404.355 296.35 400.707 292.703 396.208 292.703C391.708 292.703 388.061 296.35 388.061 300.85C388.061 305.349 391.708 308.996 396.208 308.996Z" fill="#DDE3E9"/>
<path fill-rule="evenodd" clip-rule="evenodd" d="M396.208 304.341C398.137 304.341 399.7 302.778 399.7 300.85C399.7 298.921 398.137 297.358 396.208 297.358C394.28 297.358 392.717 298.921 392.717 300.85C392.717 302.778 394.28 304.341 396.208 304.341Z" fill="#F2F2F2"/>
<path d="M427.125 223.455H103.581C101.01 223.455 98.9255 225.539 98.9255 228.11V264.189C98.9255 266.76 101.01 268.844 103.581 268.844H427.125C429.696 268.844 431.78 266.76 431.78 264.189V228.11C431.78 225.539 429.696 223.455 427.125 223.455Z" fill="white"/>
<mask id="mask6_38_11953" style="mask-type:luminance" maskUnits="userSpaceOnUse" x="109" y="237" width="266" height="19">
<path d="M374.753 237.072H109.4V255.693H374.753V237.072Z" fill="white"/>
</mask>
<g mask="url(#mask6_38_11953)">
<path d="M371.349 237.072H112.804C110.924 237.072 109.4 238.596 109.4 240.476C109.4 242.356 110.924 243.88 112.804 243.88H371.349C373.229 243.88 374.753 242.356 374.753 240.476C374.753 238.596 373.229 237.072 371.349 237.072Z" fill="#DDE3E9"/>
<path d="M284.109 248.419H112.804C110.924 248.419 109.4 249.943 109.4 251.823C109.4 253.703 110.924 255.228 112.804 255.228H284.109C285.989 255.228 287.513 253.703 287.513 251.823C287.513 249.943 285.989 248.419 284.109 248.419Z" fill="#DDE3E9"/>
</g>
<path fill-rule="evenodd" clip-rule="evenodd" d="M396.208 254.297C400.707 254.297 404.355 250.649 404.355 246.15C404.355 241.65 400.707 238.003 396.208 238.003C391.708 238.003 388.061 241.65 388.061 246.15C388.061 250.649 391.708 254.297 396.208 254.297Z" fill="#DDE3E9"/>
<path fill-rule="evenodd" clip-rule="evenodd" d="M396.208 249.641C398.137 249.641 399.7 248.078 399.7 246.15C399.7 244.221 398.137 242.658 396.208 242.658C394.28 242.658 392.717 244.221 392.717 246.15C392.717 248.078 394.28 249.641 396.208 249.641Z" fill="#F2F2F2"/>
<path fill-rule="evenodd" clip-rule="evenodd" d="M142.156 212.177C149.359 215.235 156.157 216.246 159.109 215.029C166.514 211.975 163.283 183.857 155.787 173.647C148.29 163.436 117.057 162.916 118.592 185.018C119.125 192.689 123.277 199.018 128.781 203.885L125.84 244.457L150.459 240.997L142.156 212.177Z" fill="#B28B67"/>
<path fill-rule="evenodd" clip-rule="evenodd" d="M144.372 162.982C140.864 162.433 135.933 162.773 133.911 163.296C134.688 160.341 134.714 157.166 133.91 154.191C133.129 151.3 131.459 148.98 129.871 146.527C129.139 145.396 128.332 144.282 127.252 143.489C126.152 142.683 124.841 142.233 123.514 142.116C122.157 141.997 120.786 142.215 119.509 142.676C118.943 142.88 118.458 143.219 117.908 143.446C117.344 143.68 117.009 143.354 116.533 143.048C115.386 142.308 113.825 142.082 112.509 142.108C111.032 142.137 109.556 142.568 108.239 143.238C106.955 143.891 105.767 144.824 104.946 146.058C104.581 146.606 104.264 147.217 104.094 147.867C104.025 148.133 104.029 148.284 103.789 148.411C103.569 148.53 103.297 148.571 103.068 148.686C100.854 149.797 99.1188 151.867 98.36 154.318C97.9166 155.747 97.9492 158.15 98.403 160.785C98.8569 163.42 102.225 169.989 104.82 172.193C107.138 174.16 110.287 175.229 113.217 175.481C111.635 177.892 110.757 180.752 110.214 183.61C109.622 186.716 109.433 189.883 109.643 193.053C109.843 196.065 110.266 199.222 111.377 202.041C112.417 204.678 114.133 206.719 116.674 207.81C117.839 208.309 119.061 208.636 120.284 208.92C121.49 209.199 122.697 209.466 123.93 209.544C126.263 209.693 128.865 209.246 130.358 207.201C130.897 206.463 131.474 205.551 131.822 204.694C131.948 204.386 132.021 204.185 131.782 203.935C131.494 203.635 131.069 203.434 130.724 203.216C128.755 201.975 127.385 200.142 126.778 197.82C126.163 195.464 126.373 192.282 128.562 190.907C131.265 189.212 134.648 190.247 137.405 191.268C137.956 187.282 139.707 183.517 142.966 181.266C146.573 178.776 150.992 177.923 154.744 175.694C155.722 175.113 156.71 174.471 157.35 173.477C157.617 173.061 157.925 172.528 157.984 172.021C158.061 171.354 157.569 170.873 157.178 170.417C155.099 167.997 147.88 163.533 144.372 162.982Z" fill="#191847"/>
<path fill-rule="evenodd" clip-rule="evenodd" d="M134.655 325.79L211.622 454.078L269.325 562.535H281.753L185.072 325.79H134.655Z" fill="#997659"/>
<path fill-rule="evenodd" clip-rule="evenodd" d="M264.847 556.483C263.599 555.945 262.118 556.497 261.659 557.778C260.917 559.843 259.987 562.77 259.987 564.451C259.987 567.244 260.921 572.604 260.921 572.604C264.171 572.604 319.343 572.604 319.343 572.604C319.343 572.604 321.619 565.098 316.713 564.499C311.807 563.9 308.562 563.419 308.562 563.419L281.526 551.402C280.928 551.137 280.229 551.416 279.978 552.021L278.283 556.12C278.283 556.12 273.741 558.234 270.902 558.234C269.249 558.234 266.694 557.281 264.847 556.483Z" fill="#E4E4E4"/>
<path fill-rule="evenodd" clip-rule="evenodd" d="M253.299 545.167L277.268 537.939C277.268 537.939 261.516 490.991 238.656 434.61C215.795 378.228 189.553 325.79 189.553 325.79H121.856C121.856 325.79 151.032 392.122 183.717 446.332C216.401 500.542 253.299 545.167 253.299 545.167Z" fill="#DB2721"/>
<path fill-rule="evenodd" clip-rule="evenodd" d="M129.597 325.79C122.332 370.871 108.322 428.468 106.999 430.245C106.118 431.43 74.3839 442.032 11.7979 462.05L14.4828 472.977C89.1168 462.241 128.443 453.912 132.46 447.989C138.486 439.104 168.576 368.918 180.231 325.79H129.597Z" fill="#B28B67"/>
<path fill-rule="evenodd" clip-rule="evenodd" d="M33.7976 452.605L38.5274 470.204C94.3493 475.085 128.552 471.558 141.136 459.622C153.722 447.687 168.064 403.077 184.165 325.79H119.614C109.412 389.077 103.709 422.049 102.504 424.707C101.298 427.362 78.3967 436.663 33.7976 452.605Z" fill="#FF4133"/>
<path fill-rule="evenodd" clip-rule="evenodd" d="M16.4334 460.397C16.7499 459.071 15.9446 457.704 14.5992 457.475C12.4298 457.106 9.38057 456.702 7.72327 456.993C4.96384 457.479 -0.16748 459.326 -0.16748 459.326C0.396976 462.517 9.97645 516.687 9.97645 516.687C9.97645 516.687 17.7869 517.619 17.525 512.698C17.2643 507.777 17.1771 504.507 17.1771 504.507L24.3509 475.883C24.5103 475.246 24.1111 474.603 23.4699 474.462L19.1288 473.51C19.1288 473.51 16.253 469.418 15.7595 466.63C15.4732 465.012 15.9678 462.348 16.4334 460.397Z" fill="#E4E4E4"/>
<path fill-rule="evenodd" clip-rule="evenodd" d="M207.472 234.748L174.602 259.192L189.727 271.413L212.278 244.162C225.38 238.502 231.227 234.887 229.82 233.316C228.633 231.992 227.058 232.265 225.607 232.517C224.477 232.713 223.422 232.896 222.686 232.3C221.003 230.941 223.024 225.075 225.182 219.59C227.339 214.105 224.33 214.979 222.677 215.956C217.476 220.642 212.408 226.906 207.472 234.748ZM247.103 256.994L232.668 267.757L235.758 283.279C235.758 283.279 244.862 274.568 253.235 270.921C263.912 266.27 268.076 263.28 272.536 255.62C274.923 251.521 276.345 243.756 273.241 241.728C272.049 240.951 268.405 243.695 264.687 246.496C261.853 248.631 258.976 250.798 257.109 251.463C254.597 252.358 254.429 248.971 254.296 246.265C254.2 244.324 254.122 242.731 253.206 243.324C248.639 244.045 247.103 256.994 247.103 256.994Z" fill="#997659"/>
<path fill-rule="evenodd" clip-rule="evenodd" d="M156.655 257.298C169.106 255.414 185.366 250.451 201.532 236.729L210.678 251.241C200.141 265.071 184.329 277.44 169.223 279.134C157.318 280.468 149.248 267.019 156.655 257.298Z" fill="#2026A2"/>
<path fill-rule="evenodd" clip-rule="evenodd" d="M137.939 368.168C125.867 368.293 114.774 368.407 108.496 370.583C97.958 348.148 101.898 332.537 105.533 318.125C107.725 309.44 109.807 301.189 108.543 292.144C104.861 265.804 120.376 222.283 123.496 221.844L124.392 221.719L149.125 218.242L151.956 217.844C155.52 233.964 163.43 250.847 171.392 267.839C173.251 271.807 175.113 275.781 176.924 279.753C198.265 281.526 241.903 258.778 241.903 258.778C241.903 258.778 256.859 281.063 257.415 291.37C232.639 309.049 210.599 318.477 191.78 321.539C193.948 332.622 194.079 343.44 190.863 353.792C186.556 367.664 160.532 367.934 137.939 368.168Z" fill="#1F28CF"/>
<path fill-rule="evenodd" clip-rule="evenodd" d="M446.23 211.902C440.063 216.72 433.76 219.456 430.592 219.044C422.65 218.011 418.494 190.015 423.091 178.212C427.689 166.41 457.724 157.823 461.962 179.569C463.432 187.117 461.06 194.305 457.003 200.43L470.344 238.859L445.671 241.889L446.23 211.902Z" fill="#B28B67"/>
<path fill-rule="evenodd" clip-rule="evenodd" d="M435.588 163.725C438.775 162.795 447.486 161.354 449.102 161.156C450.133 161.03 451.28 161.127 451.776 160.107C452.181 159.272 451.837 157.986 451.876 157.07C451.921 156.006 452.041 154.946 452.165 153.889C452.515 150.88 453.246 147.969 454.426 145.175C456.64 139.933 460.293 135.592 465.225 132.721C470.673 129.55 477.109 128.187 483.355 127.928C490.039 127.65 496.297 129.092 502.797 130.374C508.992 131.596 515.323 131.6 521.433 129.881C527.591 128.15 531.916 124.177 536.813 120.309C541.827 116.349 547.755 113.434 554.221 113.143C560.256 112.871 566.07 114.656 571.418 117.337C576.421 119.845 580.692 123.078 583.486 128.022C586.493 133.342 587.246 139.493 584.042 144.913C579.398 152.77 569.368 155.885 560.81 156.749C555.861 157.248 550.903 156.946 546.041 155.883C539.559 154.467 533.734 151.433 527.552 149.149C524.65 148.077 521.687 147.268 518.629 146.799C515.661 146.344 512.79 146.321 510.404 148.367C507.881 150.533 505.638 152.631 502.635 154.161C499.755 155.629 496.636 156.635 493.419 157.005C487.162 157.724 480.761 156.539 474.53 155.984C469.448 155.532 464.021 155.125 459.098 156.764C457.043 157.448 454.076 158.704 453.582 160.981C466.671 161.722 473.638 176.893 471.452 188.925C470.272 195.419 459.458 204.17 454.5 201.44C451.36 199.712 452.776 196.761 453.688 194.817C455.434 191.092 455.631 186.559 451.319 184.645C447.6 182.994 444.563 188.373 444.493 188.375C443.531 188.417 434.734 184.788 428.235 178.715C422.684 179.732 421.384 176.16 422.35 172.99C423.316 169.819 431.186 165.012 435.588 163.725Z" fill="#191847"/>
<path fill-rule="evenodd" clip-rule="evenodd" d="M499.5 325.79C497.632 351.204 377.313 426.026 376.611 428.126C376.143 429.526 414.062 516.609 414.062 516.609L403.545 520.684C403.545 520.684 345.383 428.456 348.371 418.629C352.648 404.559 441.724 326.06 441.724 326.06L499.5 325.79Z" fill="#B28B67"/>
<path fill-rule="evenodd" clip-rule="evenodd" d="M411.295 503.498L394.122 509.73C357.913 468.998 343.72 435.39 346.308 418.267C348.896 401.143 439.339 325.852 439.339 325.852H500.731C498.636 384.708 387.116 428.35 385.624 430.858C384.133 433.366 398.813 457.93 411.295 503.498Z" fill="#2F3676"/>
<path fill-rule="evenodd" clip-rule="evenodd" d="M414.638 514.691C415.627 513.758 417.209 513.773 418.08 514.819C419.486 516.508 421.364 518.941 421.94 520.52C422.898 523.144 423.859 528.499 423.859 528.499C420.805 529.607 368.961 548.42 368.961 548.42C368.961 548.42 364.247 542.144 368.652 539.908C373.057 537.672 375.941 536.113 375.941 536.113L397.223 515.603C397.694 515.149 398.448 515.173 398.89 515.656L401.89 518.93C401.89 518.93 406.882 519.367 409.551 518.398C411.104 517.835 413.175 516.069 414.638 514.691Z" fill="#E4E4E4"/>
<path fill-rule="evenodd" clip-rule="evenodd" d="M485.666 325.79L539.265 454.078L591.944 562.535H579.516L443.535 325.79H485.666Z" fill="#997659"/>
<path fill-rule="evenodd" clip-rule="evenodd" d="M589.565 556.483C590.814 555.945 592.295 556.497 592.754 557.778C593.496 559.843 594.425 562.77 594.425 564.451C594.425 567.244 593.492 572.604 593.492 572.604C590.241 572.604 535.07 572.604 535.07 572.604C535.07 572.604 532.794 565.098 537.699 564.499C542.606 563.9 545.851 563.419 545.851 563.419L572.886 551.402C573.485 551.137 574.184 551.416 574.434 552.021L576.13 556.12C576.13 556.12 580.671 558.234 583.511 558.234C585.164 558.234 587.718 557.281 589.565 556.483Z" fill="#E4E4E4"/>
<path fill-rule="evenodd" clip-rule="evenodd" d="M587.186 540.005L559.57 545.167C538.216 513.869 448.852 385.533 439.054 325.79H500.536C533.256 368.978 566.832 508.188 587.186 540.005Z" fill="#5C63AB"/>
<path fill-rule="evenodd" clip-rule="evenodd" d="M351.73 294.734L390.985 306.471L380.955 323.124L350.437 305.223C336.188 304.382 329.455 302.983 330.241 301.026C330.902 299.376 332.475 299.095 333.926 298.835C335.054 298.634 336.108 298.445 336.597 297.634C337.713 295.78 333.805 290.959 329.9 286.543C325.995 282.126 329.121 281.919 331.01 282.273C337.501 284.898 344.408 289.052 351.73 294.734ZM521.587 299.225L542.143 292.471C561.04 328.261 572.084 347.79 575.274 351.056C577.615 353.451 590.879 358.733 599.738 361.335C603.295 362.379 602.919 365.313 602.04 366.345C596.498 372.853 590.443 371.553 583.852 370.139C581.944 369.73 579.991 369.311 577.993 369.069C572.82 368.442 571.608 371.204 570.463 373.813C569.45 376.124 568.488 378.315 564.876 377.931C564.951 377.225 565.053 376.431 565.162 375.573C565.872 370.035 566.918 361.864 563.358 357.63C561.531 355.458 547.607 335.989 521.587 299.225Z" fill="#B28B67"/>
<path fill-rule="evenodd" clip-rule="evenodd" d="M454.167 223.504L445.09 223.074C428.026 244.179 425.648 290.14 413.476 297.679C401.967 304.808 384.003 301.483 362.542 296.651L357.968 311.447C379.121 329.302 421.003 341.437 435.94 329.739C459.82 311.037 458.96 254.817 454.167 223.504Z" fill="#DB2721"/>
<path fill-rule="evenodd" clip-rule="evenodd" d="M506.597 330.129C506.597 330.129 453.128 336.694 427.936 339.788C424.342 340.229 424.384 334.972 424.583 332.296C426.879 301.425 446.3 266.066 441.033 223.17L463.286 216.836C485.748 244.624 496.787 280.877 506.597 330.129Z" fill="#DDE3E9"/>
<path fill-rule="evenodd" clip-rule="evenodd" d="M464.491 216.688L464.75 216.656C519.481 241.675 556.189 286.367 574.872 350.732L558.78 355.975C546.3 344.632 530.273 325.524 510.696 298.656C517.749 315.423 523.528 332.799 526.717 349.508L455.91 358.202C437.963 325.348 455.767 217.759 455.767 217.759L460.655 217.16L464.491 216.688Z" fill="#FF4133"/>
<path fill-rule="evenodd" clip-rule="evenodd" d="M271.364 219.625C271.363 219.631 271.363 219.638 271.36 219.645C271.363 219.639 271.362 219.614 271.364 219.625Z" fill="#C5CFD6"/>
<path fill-rule="evenodd" clip-rule="evenodd" d="M271.36 219.634C271.36 219.634 271.36 219.639 271.362 219.641C271.359 219.635 271.365 219.615 271.36 219.634Z" fill="#C5CFD6"/>
<path fill-rule="evenodd" clip-rule="evenodd" d="M271.377 219.529C271.374 219.554 271.368 219.578 271.366 219.603C271.367 219.59 271.37 219.58 271.371 219.568C271.327 219.889 271.355 219.68 271.377 219.529Z" fill="#C5CFD6"/>
<path fill-rule="evenodd" clip-rule="evenodd" d="M271.368 219.604C271.366 219.616 271.364 219.627 271.363 219.639C271.345 219.711 271.368 219.604 271.368 219.604Z" fill="#C5CFD6"/>
<path fill-rule="evenodd" clip-rule="evenodd" d="M271.358 219.645C271.355 219.66 271.377 219.584 271.358 219.645V219.645Z" fill="#C5CFD6"/>
<path fill-rule="evenodd" clip-rule="evenodd" d="M271.362 219.635L271.363 219.632L271.362 219.635Z" fill="#C5CFD6"/>
<path d="M307.879 146.004L203.988 171.907C201.493 172.529 199.975 175.056 200.597 177.55L216.927 243.047C217.549 245.542 220.076 247.06 222.57 246.438L326.462 220.535C328.957 219.913 330.475 217.386 329.853 214.892L313.523 149.395C312.901 146.9 310.374 145.382 307.879 146.004Z" fill="#2B44FF"/>
<path fill-rule="evenodd" clip-rule="evenodd" d="M247.576 184.157L228.241 245.352L293.377 229.112L247.576 184.157Z" fill="black" fill-opacity="0.2"/>
<path fill-rule="evenodd" clip-rule="evenodd" d="M284.701 190.002L265.597 236.038L323.182 221.681L284.701 190.002Z" fill="black" fill-opacity="0.2"/>
<path fill-rule="evenodd" clip-rule="evenodd" d="M297.153 187.45C303.077 185.973 306.683 179.972 305.206 174.047C303.729 168.122 297.728 164.516 291.803 165.993C285.878 167.471 282.272 173.471 283.751 179.396C285.227 185.321 291.228 188.926 297.153 187.45Z" fill="white"/>
</g>
</svg>
